G04 #@! TF.GenerationSoftware,KiCad,Pcbnew,5.99.0+really5.1.10+dfsg1-1*
G04 #@! TF.CreationDate,2021-09-08T20:42:20+02:00*
G04 #@! TF.ProjectId,esp32-adapter,65737033-322d-4616-9461-707465722e6b,1.0*
G04 #@! TF.SameCoordinates,Original*
G04 #@! TF.FileFunction,Legend,Bot*
G04 #@! TF.FilePolarity,Positive*
%FSLAX46Y46*%
G04 Gerber Fmt 4.6, Leading zero omitted, Abs format (unit mm)*
G04 Created by KiCad (PCBNEW 5.99.0+really5.1.10+dfsg1-1) date 2021-09-08 20:42:20*
%MOMM*%
%LPD*%
G01*
G04 APERTURE LIST*
%ADD10C,0.500000*%
%ADD11C,0.120000*%
%ADD12C,0.203200*%
%ADD13C,0.375000*%
%ADD14C,0.010000*%
%ADD15C,0.508000*%
%ADD16C,0.150000*%
%ADD17C,1.879600*%
%ADD18C,3.200000*%
%ADD19O,1.700000X1.700000*%
%ADD20R,1.700000X1.700000*%
%ADD21C,1.778000*%
%ADD22C,1.560000*%
%ADD23R,1.560000X1.560000*%
G04 APERTURE END LIST*
D10*
X123710095Y-132926666D02*
X122742476Y-132926666D01*
X123903619Y-133507238D02*
X123226285Y-131475238D01*
X122548952Y-133507238D01*
X121871619Y-131475238D02*
X121871619Y-133120190D01*
X121774857Y-133313714D01*
X121678095Y-133410476D01*
X121484571Y-133507238D01*
X121097523Y-133507238D01*
X120904000Y-133410476D01*
X120807238Y-133313714D01*
X120710476Y-133120190D01*
X120710476Y-131475238D01*
X119936380Y-131475238D02*
X118581714Y-133507238D01*
X118581714Y-131475238D02*
X119936380Y-133507238D01*
X117807619Y-133507238D02*
X117807619Y-131475238D01*
X115872380Y-133507238D02*
X116840000Y-133507238D01*
X116840000Y-131475238D01*
X115195047Y-133507238D02*
X115195047Y-131475238D01*
X114324190Y-132926666D02*
X113356571Y-132926666D01*
X114517714Y-133507238D02*
X113840380Y-131475238D01*
X113163047Y-133507238D01*
X111324571Y-133507238D02*
X112001904Y-132539619D01*
X112485714Y-133507238D02*
X112485714Y-131475238D01*
X111711619Y-131475238D01*
X111518095Y-131572000D01*
X111421333Y-131668761D01*
X111324571Y-131862285D01*
X111324571Y-132152571D01*
X111421333Y-132346095D01*
X111518095Y-132442857D01*
X111711619Y-132539619D01*
X112485714Y-132539619D01*
X110066666Y-132539619D02*
X110066666Y-133507238D01*
X110744000Y-131475238D02*
X110066666Y-132539619D01*
X109389333Y-131475238D01*
X107260571Y-133410476D02*
X106970285Y-133507238D01*
X106486476Y-133507238D01*
X106292952Y-133410476D01*
X106196190Y-133313714D01*
X106099428Y-133120190D01*
X106099428Y-132926666D01*
X106196190Y-132733142D01*
X106292952Y-132636380D01*
X106486476Y-132539619D01*
X106873523Y-132442857D01*
X107067047Y-132346095D01*
X107163809Y-132249333D01*
X107260571Y-132055809D01*
X107260571Y-131862285D01*
X107163809Y-131668761D01*
X107067047Y-131572000D01*
X106873523Y-131475238D01*
X106389714Y-131475238D01*
X106099428Y-131572000D01*
X105228571Y-133507238D02*
X105228571Y-131475238D01*
X104454476Y-131475238D01*
X104260952Y-131572000D01*
X104164190Y-131668761D01*
X104067428Y-131862285D01*
X104067428Y-132152571D01*
X104164190Y-132346095D01*
X104260952Y-132442857D01*
X104454476Y-132539619D01*
X105228571Y-132539619D01*
X103196571Y-133507238D02*
X103196571Y-131475238D01*
X99519619Y-133313714D02*
X99616380Y-133410476D01*
X99906666Y-133507238D01*
X100100190Y-133507238D01*
X100390476Y-133410476D01*
X100584000Y-133216952D01*
X100680761Y-133023428D01*
X100777523Y-132636380D01*
X100777523Y-132346095D01*
X100680761Y-131959047D01*
X100584000Y-131765523D01*
X100390476Y-131572000D01*
X100100190Y-131475238D01*
X99906666Y-131475238D01*
X99616380Y-131572000D01*
X99519619Y-131668761D01*
X98261714Y-131475238D02*
X97874666Y-131475238D01*
X97681142Y-131572000D01*
X97487619Y-131765523D01*
X97390857Y-132152571D01*
X97390857Y-132829904D01*
X97487619Y-133216952D01*
X97681142Y-133410476D01*
X97874666Y-133507238D01*
X98261714Y-133507238D01*
X98455238Y-133410476D01*
X98648761Y-133216952D01*
X98745523Y-132829904D01*
X98745523Y-132152571D01*
X98648761Y-131765523D01*
X98455238Y-131572000D01*
X98261714Y-131475238D01*
X96520000Y-133507238D02*
X96520000Y-131475238D01*
X95358857Y-133507238D01*
X95358857Y-131475238D01*
X94391238Y-133507238D02*
X94391238Y-131475238D01*
X93230095Y-133507238D01*
X93230095Y-131475238D01*
X92262476Y-132442857D02*
X91585142Y-132442857D01*
X91294857Y-133507238D02*
X92262476Y-133507238D01*
X92262476Y-131475238D01*
X91294857Y-131475238D01*
X89262857Y-133313714D02*
X89359619Y-133410476D01*
X89649904Y-133507238D01*
X89843428Y-133507238D01*
X90133714Y-133410476D01*
X90327238Y-133216952D01*
X90424000Y-133023428D01*
X90520761Y-132636380D01*
X90520761Y-132346095D01*
X90424000Y-131959047D01*
X90327238Y-131765523D01*
X90133714Y-131572000D01*
X89843428Y-131475238D01*
X89649904Y-131475238D01*
X89359619Y-131572000D01*
X89262857Y-131668761D01*
X88682285Y-131475238D02*
X87521142Y-131475238D01*
X88101714Y-133507238D02*
X88101714Y-131475238D01*
X86456761Y-131475238D02*
X86069714Y-131475238D01*
X85876190Y-131572000D01*
X85682666Y-131765523D01*
X85585904Y-132152571D01*
X85585904Y-132829904D01*
X85682666Y-133216952D01*
X85876190Y-133410476D01*
X86069714Y-133507238D01*
X86456761Y-133507238D01*
X86650285Y-133410476D01*
X86843809Y-133216952D01*
X86940571Y-132829904D01*
X86940571Y-132152571D01*
X86843809Y-131765523D01*
X86650285Y-131572000D01*
X86456761Y-131475238D01*
X83553904Y-133507238D02*
X84231238Y-132539619D01*
X84715047Y-133507238D02*
X84715047Y-131475238D01*
X83940952Y-131475238D01*
X83747428Y-131572000D01*
X83650666Y-131668761D01*
X83553904Y-131862285D01*
X83553904Y-132152571D01*
X83650666Y-132346095D01*
X83747428Y-132442857D01*
X83940952Y-132539619D01*
X84715047Y-132539619D01*
D11*
X129540000Y-152146000D02*
X129540000Y-154940000D01*
X76200000Y-152146000D02*
X76200000Y-154940000D01*
X78740000Y-152146000D02*
X76200000Y-152146000D01*
X76200000Y-190500000D02*
X78740000Y-190500000D01*
X76200000Y-190500000D02*
X76200000Y-154940000D01*
X129540000Y-190500000D02*
X78740000Y-190500000D01*
X129540000Y-154940000D02*
X129540000Y-190500000D01*
X78740000Y-152146000D02*
X129540000Y-152146000D01*
D10*
X123856809Y-157258000D02*
X124050333Y-157161238D01*
X124340619Y-157161238D01*
X124630904Y-157258000D01*
X124824428Y-157451523D01*
X124921190Y-157645047D01*
X125017952Y-158032095D01*
X125017952Y-158322380D01*
X124921190Y-158709428D01*
X124824428Y-158902952D01*
X124630904Y-159096476D01*
X124340619Y-159193238D01*
X124147095Y-159193238D01*
X123856809Y-159096476D01*
X123760047Y-158999714D01*
X123760047Y-158322380D01*
X124147095Y-158322380D01*
X122889190Y-159193238D02*
X122889190Y-157161238D01*
X122115095Y-157161238D01*
X121921571Y-157258000D01*
X121824809Y-157354761D01*
X121728047Y-157548285D01*
X121728047Y-157838571D01*
X121824809Y-158032095D01*
X121921571Y-158128857D01*
X122115095Y-158225619D01*
X122889190Y-158225619D01*
X120857190Y-159193238D02*
X120857190Y-157161238D01*
X119502523Y-157161238D02*
X119115476Y-157161238D01*
X118921952Y-157258000D01*
X118728428Y-157451523D01*
X118631666Y-157838571D01*
X118631666Y-158515904D01*
X118728428Y-158902952D01*
X118921952Y-159096476D01*
X119115476Y-159193238D01*
X119502523Y-159193238D01*
X119696047Y-159096476D01*
X119889571Y-158902952D01*
X119986333Y-158515904D01*
X119986333Y-157838571D01*
X119889571Y-157451523D01*
X119696047Y-157258000D01*
X119502523Y-157161238D01*
X116212619Y-159193238D02*
X116212619Y-157161238D01*
X116212619Y-158128857D02*
X115051476Y-158128857D01*
X115051476Y-159193238D02*
X115051476Y-157161238D01*
X114277380Y-157161238D02*
X113793571Y-159193238D01*
X113406523Y-157741809D01*
X113019476Y-159193238D01*
X112535666Y-157161238D01*
X110213380Y-158128857D02*
X109536047Y-158128857D01*
X109245761Y-159193238D02*
X110213380Y-159193238D01*
X110213380Y-157161238D01*
X109245761Y-157161238D01*
X108471666Y-159096476D02*
X108181380Y-159193238D01*
X107697571Y-159193238D01*
X107504047Y-159096476D01*
X107407285Y-158999714D01*
X107310523Y-158806190D01*
X107310523Y-158612666D01*
X107407285Y-158419142D01*
X107504047Y-158322380D01*
X107697571Y-158225619D01*
X108084619Y-158128857D01*
X108278142Y-158032095D01*
X108374904Y-157935333D01*
X108471666Y-157741809D01*
X108471666Y-157548285D01*
X108374904Y-157354761D01*
X108278142Y-157258000D01*
X108084619Y-157161238D01*
X107600809Y-157161238D01*
X107310523Y-157258000D01*
X106439666Y-159193238D02*
X106439666Y-157161238D01*
X105665571Y-157161238D01*
X105472047Y-157258000D01*
X105375285Y-157354761D01*
X105278523Y-157548285D01*
X105278523Y-157838571D01*
X105375285Y-158032095D01*
X105472047Y-158128857D01*
X105665571Y-158225619D01*
X106439666Y-158225619D01*
X104601190Y-157161238D02*
X103343285Y-157161238D01*
X104020619Y-157935333D01*
X103730333Y-157935333D01*
X103536809Y-158032095D01*
X103440047Y-158128857D01*
X103343285Y-158322380D01*
X103343285Y-158806190D01*
X103440047Y-158999714D01*
X103536809Y-159096476D01*
X103730333Y-159193238D01*
X104310904Y-159193238D01*
X104504428Y-159096476D01*
X104601190Y-158999714D01*
X102569190Y-157354761D02*
X102472428Y-157258000D01*
X102278904Y-157161238D01*
X101795095Y-157161238D01*
X101601571Y-157258000D01*
X101504809Y-157354761D01*
X101408047Y-157548285D01*
X101408047Y-157741809D01*
X101504809Y-158032095D01*
X102665952Y-159193238D01*
X101408047Y-159193238D01*
X97827857Y-158999714D02*
X97924619Y-159096476D01*
X98214904Y-159193238D01*
X98408428Y-159193238D01*
X98698714Y-159096476D01*
X98892238Y-158902952D01*
X98989000Y-158709428D01*
X99085761Y-158322380D01*
X99085761Y-158032095D01*
X98989000Y-157645047D01*
X98892238Y-157451523D01*
X98698714Y-157258000D01*
X98408428Y-157161238D01*
X98214904Y-157161238D01*
X97924619Y-157258000D01*
X97827857Y-157354761D01*
X96569952Y-157161238D02*
X96182904Y-157161238D01*
X95989380Y-157258000D01*
X95795857Y-157451523D01*
X95699095Y-157838571D01*
X95699095Y-158515904D01*
X95795857Y-158902952D01*
X95989380Y-159096476D01*
X96182904Y-159193238D01*
X96569952Y-159193238D01*
X96763476Y-159096476D01*
X96957000Y-158902952D01*
X97053761Y-158515904D01*
X97053761Y-157838571D01*
X96957000Y-157451523D01*
X96763476Y-157258000D01*
X96569952Y-157161238D01*
X94828238Y-159193238D02*
X94828238Y-157161238D01*
X93667095Y-159193238D01*
X93667095Y-157161238D01*
X92699476Y-159193238D02*
X92699476Y-157161238D01*
X91538333Y-159193238D01*
X91538333Y-157161238D01*
X90570714Y-158128857D02*
X89893380Y-158128857D01*
X89603095Y-159193238D02*
X90570714Y-159193238D01*
X90570714Y-157161238D01*
X89603095Y-157161238D01*
X87571095Y-158999714D02*
X87667857Y-159096476D01*
X87958142Y-159193238D01*
X88151666Y-159193238D01*
X88441952Y-159096476D01*
X88635476Y-158902952D01*
X88732238Y-158709428D01*
X88829000Y-158322380D01*
X88829000Y-158032095D01*
X88732238Y-157645047D01*
X88635476Y-157451523D01*
X88441952Y-157258000D01*
X88151666Y-157161238D01*
X87958142Y-157161238D01*
X87667857Y-157258000D01*
X87571095Y-157354761D01*
X86990523Y-157161238D02*
X85829380Y-157161238D01*
X86409952Y-159193238D02*
X86409952Y-157161238D01*
X85152047Y-159193238D02*
X85152047Y-157161238D01*
X83797380Y-157161238D02*
X83410333Y-157161238D01*
X83216809Y-157258000D01*
X83023285Y-157451523D01*
X82926523Y-157838571D01*
X82926523Y-158515904D01*
X83023285Y-158902952D01*
X83216809Y-159096476D01*
X83410333Y-159193238D01*
X83797380Y-159193238D01*
X83990904Y-159096476D01*
X84184428Y-158902952D01*
X84281190Y-158515904D01*
X84281190Y-157838571D01*
X84184428Y-157451523D01*
X83990904Y-157258000D01*
X83797380Y-157161238D01*
X82055666Y-159193238D02*
X82055666Y-157161238D01*
X80894523Y-159193238D01*
X80894523Y-157161238D01*
X80023666Y-159096476D02*
X79733380Y-159193238D01*
X79249571Y-159193238D01*
X79056047Y-159096476D01*
X78959285Y-158999714D01*
X78862523Y-158806190D01*
X78862523Y-158612666D01*
X78959285Y-158419142D01*
X79056047Y-158322380D01*
X79249571Y-158225619D01*
X79636619Y-158128857D01*
X79830142Y-158032095D01*
X79926904Y-157935333D01*
X80023666Y-157741809D01*
X80023666Y-157548285D01*
X79926904Y-157354761D01*
X79830142Y-157258000D01*
X79636619Y-157161238D01*
X79152809Y-157161238D01*
X78862523Y-157258000D01*
X124340619Y-163515333D02*
X124437380Y-163418571D01*
X124630904Y-163128285D01*
X124727666Y-162934761D01*
X124824428Y-162644476D01*
X124921190Y-162160666D01*
X124921190Y-161773619D01*
X124824428Y-161289809D01*
X124727666Y-160999523D01*
X124630904Y-160806000D01*
X124437380Y-160515714D01*
X124340619Y-160418952D01*
X123663285Y-162160666D02*
X122695666Y-162160666D01*
X123856809Y-162741238D02*
X123179476Y-160709238D01*
X122502142Y-162741238D01*
X121824809Y-162741238D02*
X121824809Y-161386571D01*
X121824809Y-161773619D02*
X121728047Y-161580095D01*
X121631285Y-161483333D01*
X121437761Y-161386571D01*
X121244238Y-161386571D01*
X119696047Y-162741238D02*
X119696047Y-160709238D01*
X119696047Y-162644476D02*
X119889571Y-162741238D01*
X120276619Y-162741238D01*
X120470142Y-162644476D01*
X120566904Y-162547714D01*
X120663666Y-162354190D01*
X120663666Y-161773619D01*
X120566904Y-161580095D01*
X120470142Y-161483333D01*
X120276619Y-161386571D01*
X119889571Y-161386571D01*
X119696047Y-161483333D01*
X117857571Y-161386571D02*
X117857571Y-162741238D01*
X118728428Y-161386571D02*
X118728428Y-162450952D01*
X118631666Y-162644476D01*
X118438142Y-162741238D01*
X118147857Y-162741238D01*
X117954333Y-162644476D01*
X117857571Y-162547714D01*
X116889952Y-162741238D02*
X116889952Y-161386571D01*
X116889952Y-160709238D02*
X116986714Y-160806000D01*
X116889952Y-160902761D01*
X116793190Y-160806000D01*
X116889952Y-160709238D01*
X116889952Y-160902761D01*
X115922333Y-161386571D02*
X115922333Y-162741238D01*
X115922333Y-161580095D02*
X115825571Y-161483333D01*
X115632047Y-161386571D01*
X115341761Y-161386571D01*
X115148238Y-161483333D01*
X115051476Y-161676857D01*
X115051476Y-162741238D01*
X113793571Y-162741238D02*
X113987095Y-162644476D01*
X114083857Y-162547714D01*
X114180619Y-162354190D01*
X114180619Y-161773619D01*
X114083857Y-161580095D01*
X113987095Y-161483333D01*
X113793571Y-161386571D01*
X113503285Y-161386571D01*
X113309761Y-161483333D01*
X113213000Y-161580095D01*
X113116238Y-161773619D01*
X113116238Y-162354190D01*
X113213000Y-162547714D01*
X113309761Y-162644476D01*
X113503285Y-162741238D01*
X113793571Y-162741238D01*
X110987476Y-160709238D02*
X109826333Y-160709238D01*
X110406904Y-162741238D02*
X110406904Y-160709238D01*
X108471666Y-161676857D02*
X109149000Y-161676857D01*
X109149000Y-162741238D02*
X109149000Y-160709238D01*
X108181380Y-160709238D01*
X107697571Y-160709238D02*
X106536428Y-160709238D01*
X107117000Y-162741238D02*
X107117000Y-160709238D01*
X106342904Y-162934761D02*
X104794714Y-162934761D01*
X103536809Y-162644476D02*
X103730333Y-162741238D01*
X104117380Y-162741238D01*
X104310904Y-162644476D01*
X104407666Y-162450952D01*
X104407666Y-161676857D01*
X104310904Y-161483333D01*
X104117380Y-161386571D01*
X103730333Y-161386571D01*
X103536809Y-161483333D01*
X103440047Y-161676857D01*
X103440047Y-161870380D01*
X104407666Y-162063904D01*
X102665952Y-162644476D02*
X102375666Y-162741238D01*
X101891857Y-162741238D01*
X101698333Y-162644476D01*
X101601571Y-162547714D01*
X101504809Y-162354190D01*
X101504809Y-162160666D01*
X101601571Y-161967142D01*
X101698333Y-161870380D01*
X101891857Y-161773619D01*
X102278904Y-161676857D01*
X102472428Y-161580095D01*
X102569190Y-161483333D01*
X102665952Y-161289809D01*
X102665952Y-161096285D01*
X102569190Y-160902761D01*
X102472428Y-160806000D01*
X102278904Y-160709238D01*
X101795095Y-160709238D01*
X101504809Y-160806000D01*
X100633952Y-162741238D02*
X100633952Y-160709238D01*
X99859857Y-160709238D01*
X99666333Y-160806000D01*
X99569571Y-160902761D01*
X99472809Y-161096285D01*
X99472809Y-161386571D01*
X99569571Y-161580095D01*
X99666333Y-161676857D01*
X99859857Y-161773619D01*
X100633952Y-161773619D01*
X98601952Y-162741238D02*
X98601952Y-160709238D01*
X95118523Y-162741238D02*
X96086142Y-162741238D01*
X96086142Y-160709238D01*
X94441190Y-162741238D02*
X94441190Y-161386571D01*
X94441190Y-160709238D02*
X94537952Y-160806000D01*
X94441190Y-160902761D01*
X94344428Y-160806000D01*
X94441190Y-160709238D01*
X94441190Y-160902761D01*
X93473571Y-162741238D02*
X93473571Y-160709238D01*
X93473571Y-161483333D02*
X93280047Y-161386571D01*
X92893000Y-161386571D01*
X92699476Y-161483333D01*
X92602714Y-161580095D01*
X92505952Y-161773619D01*
X92505952Y-162354190D01*
X92602714Y-162547714D01*
X92699476Y-162644476D01*
X92893000Y-162741238D01*
X93280047Y-162741238D01*
X93473571Y-162644476D01*
X91635095Y-162741238D02*
X91635095Y-161386571D01*
X91635095Y-161773619D02*
X91538333Y-161580095D01*
X91441571Y-161483333D01*
X91248047Y-161386571D01*
X91054523Y-161386571D01*
X89506333Y-162741238D02*
X89506333Y-161676857D01*
X89603095Y-161483333D01*
X89796619Y-161386571D01*
X90183666Y-161386571D01*
X90377190Y-161483333D01*
X89506333Y-162644476D02*
X89699857Y-162741238D01*
X90183666Y-162741238D01*
X90377190Y-162644476D01*
X90473952Y-162450952D01*
X90473952Y-162257428D01*
X90377190Y-162063904D01*
X90183666Y-161967142D01*
X89699857Y-161967142D01*
X89506333Y-161870380D01*
X88538714Y-162741238D02*
X88538714Y-161386571D01*
X88538714Y-161773619D02*
X88441952Y-161580095D01*
X88345190Y-161483333D01*
X88151666Y-161386571D01*
X87958142Y-161386571D01*
X87474333Y-161386571D02*
X86990523Y-162741238D01*
X86506714Y-161386571D02*
X86990523Y-162741238D01*
X87184047Y-163225047D01*
X87280809Y-163321809D01*
X87474333Y-163418571D01*
X85926142Y-163515333D02*
X85829380Y-163418571D01*
X85635857Y-163128285D01*
X85539095Y-162934761D01*
X85442333Y-162644476D01*
X85345571Y-162160666D01*
X85345571Y-161773619D01*
X85442333Y-161289809D01*
X85539095Y-160999523D01*
X85635857Y-160806000D01*
X85829380Y-160515714D01*
X85926142Y-160418952D01*
X125017952Y-164934571D02*
X123566523Y-164934571D01*
X124437380Y-164063714D02*
X125017952Y-166676285D01*
X123760047Y-165805428D02*
X125211476Y-165805428D01*
X124340619Y-166676285D02*
X123760047Y-164063714D01*
X122018333Y-166289238D02*
X122018333Y-164257238D01*
X122018333Y-166192476D02*
X122211857Y-166289238D01*
X122598904Y-166289238D01*
X122792428Y-166192476D01*
X122889190Y-166095714D01*
X122985952Y-165902190D01*
X122985952Y-165321619D01*
X122889190Y-165128095D01*
X122792428Y-165031333D01*
X122598904Y-164934571D01*
X122211857Y-164934571D01*
X122018333Y-165031333D01*
X120276619Y-166192476D02*
X120470142Y-166289238D01*
X120857190Y-166289238D01*
X121050714Y-166192476D01*
X121147476Y-165998952D01*
X121147476Y-165224857D01*
X121050714Y-165031333D01*
X120857190Y-164934571D01*
X120470142Y-164934571D01*
X120276619Y-165031333D01*
X120179857Y-165224857D01*
X120179857Y-165418380D01*
X121147476Y-165611904D01*
X119599285Y-164934571D02*
X118825190Y-164934571D01*
X119309000Y-166289238D02*
X119309000Y-164547523D01*
X119212238Y-164354000D01*
X119018714Y-164257238D01*
X118825190Y-164257238D01*
X118147857Y-166289238D02*
X118147857Y-164934571D01*
X118147857Y-164257238D02*
X118244619Y-164354000D01*
X118147857Y-164450761D01*
X118051095Y-164354000D01*
X118147857Y-164257238D01*
X118147857Y-164450761D01*
X117180238Y-164934571D02*
X117180238Y-166289238D01*
X117180238Y-165128095D02*
X117083476Y-165031333D01*
X116889952Y-164934571D01*
X116599666Y-164934571D01*
X116406142Y-165031333D01*
X116309380Y-165224857D01*
X116309380Y-166289238D01*
X114567666Y-166192476D02*
X114761190Y-166289238D01*
X115148238Y-166289238D01*
X115341761Y-166192476D01*
X115438523Y-165998952D01*
X115438523Y-165224857D01*
X115341761Y-165031333D01*
X115148238Y-164934571D01*
X114761190Y-164934571D01*
X114567666Y-165031333D01*
X114470904Y-165224857D01*
X114470904Y-165418380D01*
X115438523Y-165611904D01*
X112342142Y-164257238D02*
X111180999Y-164257238D01*
X111761571Y-166289238D02*
X111761571Y-164257238D01*
X109826333Y-165224857D02*
X110503666Y-165224857D01*
X110503666Y-166289238D02*
X110503666Y-164257238D01*
X109536047Y-164257238D01*
X109052238Y-164257238D02*
X107891095Y-164257238D01*
X108471666Y-166289238D02*
X108471666Y-164257238D01*
X107697571Y-166482761D02*
X106149380Y-166482761D01*
X105665571Y-166289238D02*
X105665571Y-164257238D01*
X104988238Y-165708666D01*
X104310904Y-164257238D01*
X104310904Y-166289238D01*
X102956238Y-164257238D02*
X102569190Y-164257238D01*
X102375666Y-164354000D01*
X102182142Y-164547523D01*
X102085380Y-164934571D01*
X102085380Y-165611904D01*
X102182142Y-165998952D01*
X102375666Y-166192476D01*
X102569190Y-166289238D01*
X102956238Y-166289238D01*
X103149761Y-166192476D01*
X103343285Y-165998952D01*
X103440047Y-165611904D01*
X103440047Y-164934571D01*
X103343285Y-164547523D01*
X103149761Y-164354000D01*
X102956238Y-164257238D01*
X101311285Y-166192476D02*
X101020999Y-166289238D01*
X100537190Y-166289238D01*
X100343666Y-166192476D01*
X100246904Y-166095714D01*
X100150142Y-165902190D01*
X100150142Y-165708666D01*
X100246904Y-165515142D01*
X100343666Y-165418380D01*
X100537190Y-165321619D01*
X100924238Y-165224857D01*
X101117761Y-165128095D01*
X101214523Y-165031333D01*
X101311285Y-164837809D01*
X101311285Y-164644285D01*
X101214523Y-164450761D01*
X101117761Y-164354000D01*
X100924238Y-164257238D01*
X100440428Y-164257238D01*
X100150142Y-164354000D01*
X99279285Y-166289238D02*
X99279285Y-164257238D01*
X95312047Y-164450761D02*
X95215285Y-164354000D01*
X95021761Y-164257238D01*
X94537952Y-164257238D01*
X94344428Y-164354000D01*
X94247666Y-164450761D01*
X94150904Y-164644285D01*
X94150904Y-164837809D01*
X94247666Y-165128095D01*
X95408809Y-166289238D01*
X94150904Y-166289238D01*
X93473571Y-164257238D02*
X92215666Y-164257238D01*
X92892999Y-165031333D01*
X92602714Y-165031333D01*
X92409190Y-165128095D01*
X92312428Y-165224857D01*
X92215666Y-165418380D01*
X92215666Y-165902190D01*
X92312428Y-166095714D01*
X92409190Y-166192476D01*
X92602714Y-166289238D01*
X93183285Y-166289238D01*
X93376809Y-166192476D01*
X93473571Y-166095714D01*
X125017952Y-168482571D02*
X123566523Y-168482571D01*
X124437380Y-167611714D02*
X125017952Y-170224285D01*
X123760047Y-169353428D02*
X125211476Y-169353428D01*
X124340619Y-170224285D02*
X123760047Y-167611714D01*
X122018333Y-169837238D02*
X122018333Y-167805238D01*
X122018333Y-169740476D02*
X122211857Y-169837238D01*
X122598904Y-169837238D01*
X122792428Y-169740476D01*
X122889190Y-169643714D01*
X122985952Y-169450190D01*
X122985952Y-168869619D01*
X122889190Y-168676095D01*
X122792428Y-168579333D01*
X122598904Y-168482571D01*
X122211857Y-168482571D01*
X122018333Y-168579333D01*
X120276619Y-169740476D02*
X120470142Y-169837238D01*
X120857190Y-169837238D01*
X121050714Y-169740476D01*
X121147476Y-169546952D01*
X121147476Y-168772857D01*
X121050714Y-168579333D01*
X120857190Y-168482571D01*
X120470142Y-168482571D01*
X120276619Y-168579333D01*
X120179857Y-168772857D01*
X120179857Y-168966380D01*
X121147476Y-169159904D01*
X119599285Y-168482571D02*
X118825190Y-168482571D01*
X119309000Y-169837238D02*
X119309000Y-168095523D01*
X119212238Y-167902000D01*
X119018714Y-167805238D01*
X118825190Y-167805238D01*
X118147857Y-169837238D02*
X118147857Y-168482571D01*
X118147857Y-167805238D02*
X118244619Y-167902000D01*
X118147857Y-167998761D01*
X118051095Y-167902000D01*
X118147857Y-167805238D01*
X118147857Y-167998761D01*
X117180238Y-168482571D02*
X117180238Y-169837238D01*
X117180238Y-168676095D02*
X117083476Y-168579333D01*
X116889952Y-168482571D01*
X116599666Y-168482571D01*
X116406142Y-168579333D01*
X116309380Y-168772857D01*
X116309380Y-169837238D01*
X114567666Y-169740476D02*
X114761190Y-169837238D01*
X115148238Y-169837238D01*
X115341761Y-169740476D01*
X115438523Y-169546952D01*
X115438523Y-168772857D01*
X115341761Y-168579333D01*
X115148238Y-168482571D01*
X114761190Y-168482571D01*
X114567666Y-168579333D01*
X114470904Y-168772857D01*
X114470904Y-168966380D01*
X115438523Y-169159904D01*
X112342142Y-167805238D02*
X111181000Y-167805238D01*
X111761571Y-169837238D02*
X111761571Y-167805238D01*
X109826333Y-168772857D02*
X110503666Y-168772857D01*
X110503666Y-169837238D02*
X110503666Y-167805238D01*
X109536047Y-167805238D01*
X109052238Y-167805238D02*
X107891095Y-167805238D01*
X108471666Y-169837238D02*
X108471666Y-167805238D01*
X107697571Y-170030761D02*
X106149380Y-170030761D01*
X105665571Y-169837238D02*
X105665571Y-167805238D01*
X104988238Y-169256666D01*
X104310904Y-167805238D01*
X104310904Y-169837238D01*
X103343285Y-169837238D02*
X103343285Y-167805238D01*
X102472428Y-169740476D02*
X102182142Y-169837238D01*
X101698333Y-169837238D01*
X101504809Y-169740476D01*
X101408047Y-169643714D01*
X101311285Y-169450190D01*
X101311285Y-169256666D01*
X101408047Y-169063142D01*
X101504809Y-168966380D01*
X101698333Y-168869619D01*
X102085380Y-168772857D01*
X102278904Y-168676095D01*
X102375666Y-168579333D01*
X102472428Y-168385809D01*
X102472428Y-168192285D01*
X102375666Y-167998761D01*
X102278904Y-167902000D01*
X102085380Y-167805238D01*
X101601571Y-167805238D01*
X101311285Y-167902000D01*
X100053380Y-167805238D02*
X99666333Y-167805238D01*
X99472809Y-167902000D01*
X99279285Y-168095523D01*
X99182523Y-168482571D01*
X99182523Y-169159904D01*
X99279285Y-169546952D01*
X99472809Y-169740476D01*
X99666333Y-169837238D01*
X100053380Y-169837238D01*
X100246904Y-169740476D01*
X100440428Y-169546952D01*
X100537190Y-169159904D01*
X100537190Y-168482571D01*
X100440428Y-168095523D01*
X100246904Y-167902000D01*
X100053380Y-167805238D01*
X95215285Y-169837238D02*
X95215285Y-167805238D01*
X94054142Y-169837238D01*
X94054142Y-167805238D01*
X91925380Y-169643714D02*
X92022142Y-169740476D01*
X92312428Y-169837238D01*
X92505952Y-169837238D01*
X92796238Y-169740476D01*
X92989761Y-169546952D01*
X93086523Y-169353428D01*
X93183285Y-168966380D01*
X93183285Y-168676095D01*
X93086523Y-168289047D01*
X92989761Y-168095523D01*
X92796238Y-167902000D01*
X92505952Y-167805238D01*
X92312428Y-167805238D01*
X92022142Y-167902000D01*
X91925380Y-167998761D01*
X125017952Y-172030571D02*
X123566523Y-172030571D01*
X124437380Y-171159714D02*
X125017952Y-173772285D01*
X123760047Y-172901428D02*
X125211476Y-172901428D01*
X124340619Y-173772285D02*
X123760047Y-171159714D01*
X122018333Y-173385238D02*
X122018333Y-171353238D01*
X122018333Y-173288476D02*
X122211857Y-173385238D01*
X122598904Y-173385238D01*
X122792428Y-173288476D01*
X122889190Y-173191714D01*
X122985952Y-172998190D01*
X122985952Y-172417619D01*
X122889190Y-172224095D01*
X122792428Y-172127333D01*
X122598904Y-172030571D01*
X122211857Y-172030571D01*
X122018333Y-172127333D01*
X120276619Y-173288476D02*
X120470142Y-173385238D01*
X120857190Y-173385238D01*
X121050714Y-173288476D01*
X121147476Y-173094952D01*
X121147476Y-172320857D01*
X121050714Y-172127333D01*
X120857190Y-172030571D01*
X120470142Y-172030571D01*
X120276619Y-172127333D01*
X120179857Y-172320857D01*
X120179857Y-172514380D01*
X121147476Y-172707904D01*
X119599285Y-172030571D02*
X118825190Y-172030571D01*
X119309000Y-173385238D02*
X119309000Y-171643523D01*
X119212238Y-171450000D01*
X119018714Y-171353238D01*
X118825190Y-171353238D01*
X118147857Y-173385238D02*
X118147857Y-172030571D01*
X118147857Y-171353238D02*
X118244619Y-171450000D01*
X118147857Y-171546761D01*
X118051095Y-171450000D01*
X118147857Y-171353238D01*
X118147857Y-171546761D01*
X117180238Y-172030571D02*
X117180238Y-173385238D01*
X117180238Y-172224095D02*
X117083476Y-172127333D01*
X116889952Y-172030571D01*
X116599666Y-172030571D01*
X116406142Y-172127333D01*
X116309380Y-172320857D01*
X116309380Y-173385238D01*
X114567666Y-173288476D02*
X114761190Y-173385238D01*
X115148238Y-173385238D01*
X115341761Y-173288476D01*
X115438523Y-173094952D01*
X115438523Y-172320857D01*
X115341761Y-172127333D01*
X115148238Y-172030571D01*
X114761190Y-172030571D01*
X114567666Y-172127333D01*
X114470904Y-172320857D01*
X114470904Y-172514380D01*
X115438523Y-172707904D01*
X112342142Y-171353238D02*
X111181000Y-171353238D01*
X111761571Y-173385238D02*
X111761571Y-171353238D01*
X109826333Y-172320857D02*
X110503666Y-172320857D01*
X110503666Y-173385238D02*
X110503666Y-171353238D01*
X109536047Y-171353238D01*
X109052238Y-171353238D02*
X107891095Y-171353238D01*
X108471666Y-173385238D02*
X108471666Y-171353238D01*
X107697571Y-173578761D02*
X106149380Y-173578761D01*
X105762333Y-173288476D02*
X105472047Y-173385238D01*
X104988238Y-173385238D01*
X104794714Y-173288476D01*
X104697952Y-173191714D01*
X104601190Y-172998190D01*
X104601190Y-172804666D01*
X104697952Y-172611142D01*
X104794714Y-172514380D01*
X104988238Y-172417619D01*
X105375285Y-172320857D01*
X105568809Y-172224095D01*
X105665571Y-172127333D01*
X105762333Y-171933809D01*
X105762333Y-171740285D01*
X105665571Y-171546761D01*
X105568809Y-171450000D01*
X105375285Y-171353238D01*
X104891476Y-171353238D01*
X104601190Y-171450000D01*
X102569190Y-173191714D02*
X102665952Y-173288476D01*
X102956238Y-173385238D01*
X103149761Y-173385238D01*
X103440047Y-173288476D01*
X103633571Y-173094952D01*
X103730333Y-172901428D01*
X103827095Y-172514380D01*
X103827095Y-172224095D01*
X103730333Y-171837047D01*
X103633571Y-171643523D01*
X103440047Y-171450000D01*
X103149761Y-171353238D01*
X102956238Y-171353238D01*
X102665952Y-171450000D01*
X102569190Y-171546761D01*
X100730714Y-173385238D02*
X101698333Y-173385238D01*
X101698333Y-171353238D01*
X100053380Y-173385238D02*
X100053380Y-171353238D01*
X98892238Y-173385238D02*
X99763095Y-172224095D01*
X98892238Y-171353238D02*
X100053380Y-172514380D01*
X93860619Y-173385238D02*
X95021761Y-173385238D01*
X94441190Y-173385238D02*
X94441190Y-171353238D01*
X94634714Y-171643523D01*
X94828238Y-171837047D01*
X95021761Y-171933809D01*
X92699476Y-172224095D02*
X92893000Y-172127333D01*
X92989761Y-172030571D01*
X93086523Y-171837047D01*
X93086523Y-171740285D01*
X92989761Y-171546761D01*
X92893000Y-171450000D01*
X92699476Y-171353238D01*
X92312428Y-171353238D01*
X92118904Y-171450000D01*
X92022142Y-171546761D01*
X91925380Y-171740285D01*
X91925380Y-171837047D01*
X92022142Y-172030571D01*
X92118904Y-172127333D01*
X92312428Y-172224095D01*
X92699476Y-172224095D01*
X92893000Y-172320857D01*
X92989761Y-172417619D01*
X93086523Y-172611142D01*
X93086523Y-172998190D01*
X92989761Y-173191714D01*
X92893000Y-173288476D01*
X92699476Y-173385238D01*
X92312428Y-173385238D01*
X92118904Y-173288476D01*
X92022142Y-173191714D01*
X91925380Y-172998190D01*
X91925380Y-172611142D01*
X92022142Y-172417619D01*
X92118904Y-172320857D01*
X92312428Y-172224095D01*
X125017952Y-179126571D02*
X123566523Y-179126571D01*
X124437380Y-178255714D02*
X125017952Y-180868285D01*
X123760047Y-179997428D02*
X125211476Y-179997428D01*
X124340619Y-180868285D02*
X123760047Y-178255714D01*
X122018333Y-180481238D02*
X122018333Y-178449238D01*
X122018333Y-180384476D02*
X122211857Y-180481238D01*
X122598904Y-180481238D01*
X122792428Y-180384476D01*
X122889190Y-180287714D01*
X122985952Y-180094190D01*
X122985952Y-179513619D01*
X122889190Y-179320095D01*
X122792428Y-179223333D01*
X122598904Y-179126571D01*
X122211857Y-179126571D01*
X122018333Y-179223333D01*
X120276619Y-180384476D02*
X120470142Y-180481238D01*
X120857190Y-180481238D01*
X121050714Y-180384476D01*
X121147476Y-180190952D01*
X121147476Y-179416857D01*
X121050714Y-179223333D01*
X120857190Y-179126571D01*
X120470142Y-179126571D01*
X120276619Y-179223333D01*
X120179857Y-179416857D01*
X120179857Y-179610380D01*
X121147476Y-179803904D01*
X119599285Y-179126571D02*
X118825190Y-179126571D01*
X119309000Y-180481238D02*
X119309000Y-178739523D01*
X119212238Y-178546000D01*
X119018714Y-178449238D01*
X118825190Y-178449238D01*
X118147857Y-180481238D02*
X118147857Y-179126571D01*
X118147857Y-178449238D02*
X118244619Y-178546000D01*
X118147857Y-178642761D01*
X118051095Y-178546000D01*
X118147857Y-178449238D01*
X118147857Y-178642761D01*
X117180238Y-179126571D02*
X117180238Y-180481238D01*
X117180238Y-179320095D02*
X117083476Y-179223333D01*
X116889952Y-179126571D01*
X116599666Y-179126571D01*
X116406142Y-179223333D01*
X116309380Y-179416857D01*
X116309380Y-180481238D01*
X114567666Y-180384476D02*
X114761190Y-180481238D01*
X115148238Y-180481238D01*
X115341761Y-180384476D01*
X115438523Y-180190952D01*
X115438523Y-179416857D01*
X115341761Y-179223333D01*
X115148238Y-179126571D01*
X114761190Y-179126571D01*
X114567666Y-179223333D01*
X114470904Y-179416857D01*
X114470904Y-179610380D01*
X115438523Y-179803904D01*
X112342142Y-178449238D02*
X111181000Y-178449238D01*
X111761571Y-180481238D02*
X111761571Y-178449238D01*
X109826333Y-179416857D02*
X110503666Y-179416857D01*
X110503666Y-180481238D02*
X110503666Y-178449238D01*
X109536047Y-178449238D01*
X109052238Y-178449238D02*
X107891095Y-178449238D01*
X108471666Y-180481238D02*
X108471666Y-178449238D01*
X107697571Y-180674761D02*
X106149380Y-180674761D01*
X104504428Y-180287714D02*
X104601190Y-180384476D01*
X104891476Y-180481238D01*
X105085000Y-180481238D01*
X105375285Y-180384476D01*
X105568809Y-180190952D01*
X105665571Y-179997428D01*
X105762333Y-179610380D01*
X105762333Y-179320095D01*
X105665571Y-178933047D01*
X105568809Y-178739523D01*
X105375285Y-178546000D01*
X105085000Y-178449238D01*
X104891476Y-178449238D01*
X104601190Y-178546000D01*
X104504428Y-178642761D01*
X103730333Y-180384476D02*
X103440047Y-180481238D01*
X102956238Y-180481238D01*
X102762714Y-180384476D01*
X102665952Y-180287714D01*
X102569190Y-180094190D01*
X102569190Y-179900666D01*
X102665952Y-179707142D01*
X102762714Y-179610380D01*
X102956238Y-179513619D01*
X103343285Y-179416857D01*
X103536809Y-179320095D01*
X103633571Y-179223333D01*
X103730333Y-179029809D01*
X103730333Y-178836285D01*
X103633571Y-178642761D01*
X103536809Y-178546000D01*
X103343285Y-178449238D01*
X102859476Y-178449238D01*
X102569190Y-178546000D01*
X98698714Y-178642761D02*
X98601952Y-178546000D01*
X98408428Y-178449238D01*
X97924619Y-178449238D01*
X97731095Y-178546000D01*
X97634333Y-178642761D01*
X97537571Y-178836285D01*
X97537571Y-179029809D01*
X97634333Y-179320095D01*
X98795476Y-180481238D01*
X97537571Y-180481238D01*
X96860238Y-178449238D02*
X95505571Y-178449238D01*
X96376428Y-180481238D01*
X125017952Y-182674571D02*
X123566523Y-182674571D01*
X124437380Y-181803714D02*
X125017952Y-184416285D01*
X123760047Y-183545428D02*
X125211476Y-183545428D01*
X124340619Y-184416285D02*
X123760047Y-181803714D01*
X122018333Y-184029238D02*
X122018333Y-181997238D01*
X122018333Y-183932476D02*
X122211857Y-184029238D01*
X122598904Y-184029238D01*
X122792428Y-183932476D01*
X122889190Y-183835714D01*
X122985952Y-183642190D01*
X122985952Y-183061619D01*
X122889190Y-182868095D01*
X122792428Y-182771333D01*
X122598904Y-182674571D01*
X122211857Y-182674571D01*
X122018333Y-182771333D01*
X120276619Y-183932476D02*
X120470142Y-184029238D01*
X120857190Y-184029238D01*
X121050714Y-183932476D01*
X121147476Y-183738952D01*
X121147476Y-182964857D01*
X121050714Y-182771333D01*
X120857190Y-182674571D01*
X120470142Y-182674571D01*
X120276619Y-182771333D01*
X120179857Y-182964857D01*
X120179857Y-183158380D01*
X121147476Y-183351904D01*
X119599285Y-182674571D02*
X118825190Y-182674571D01*
X119309000Y-184029238D02*
X119309000Y-182287523D01*
X119212238Y-182094000D01*
X119018714Y-181997238D01*
X118825190Y-181997238D01*
X118147857Y-184029238D02*
X118147857Y-182674571D01*
X118147857Y-181997238D02*
X118244619Y-182094000D01*
X118147857Y-182190761D01*
X118051095Y-182094000D01*
X118147857Y-181997238D01*
X118147857Y-182190761D01*
X117180238Y-182674571D02*
X117180238Y-184029238D01*
X117180238Y-182868095D02*
X117083476Y-182771333D01*
X116889952Y-182674571D01*
X116599666Y-182674571D01*
X116406142Y-182771333D01*
X116309380Y-182964857D01*
X116309380Y-184029238D01*
X114567666Y-183932476D02*
X114761190Y-184029238D01*
X115148238Y-184029238D01*
X115341761Y-183932476D01*
X115438523Y-183738952D01*
X115438523Y-182964857D01*
X115341761Y-182771333D01*
X115148238Y-182674571D01*
X114761190Y-182674571D01*
X114567666Y-182771333D01*
X114470904Y-182964857D01*
X114470904Y-183158380D01*
X115438523Y-183351904D01*
X112342142Y-181997238D02*
X111180999Y-181997238D01*
X111761571Y-184029238D02*
X111761571Y-181997238D01*
X109826333Y-182964857D02*
X110503666Y-182964857D01*
X110503666Y-184029238D02*
X110503666Y-181997238D01*
X109536047Y-181997238D01*
X109052238Y-181997238D02*
X107891095Y-181997238D01*
X108471666Y-184029238D02*
X108471666Y-181997238D01*
X107697571Y-184222761D02*
X106149380Y-184222761D01*
X105665571Y-184029238D02*
X105665571Y-181997238D01*
X105181761Y-181997238D01*
X104891476Y-182094000D01*
X104697952Y-182287523D01*
X104601190Y-182481047D01*
X104504428Y-182868095D01*
X104504428Y-183158380D01*
X104601190Y-183545428D01*
X104697952Y-183738952D01*
X104891476Y-183932476D01*
X105181761Y-184029238D01*
X105665571Y-184029238D01*
X102472428Y-183835714D02*
X102569190Y-183932476D01*
X102859476Y-184029238D01*
X103052999Y-184029238D01*
X103343285Y-183932476D01*
X103536809Y-183738952D01*
X103633571Y-183545428D01*
X103730333Y-183158380D01*
X103730333Y-182868095D01*
X103633571Y-182481047D01*
X103536809Y-182287523D01*
X103343285Y-182094000D01*
X103052999Y-181997238D01*
X102859476Y-181997238D01*
X102569190Y-182094000D01*
X102472428Y-182190761D01*
X98601952Y-182190761D02*
X98505190Y-182094000D01*
X98311666Y-181997238D01*
X97827857Y-181997238D01*
X97634333Y-182094000D01*
X97537571Y-182190761D01*
X97440809Y-182384285D01*
X97440809Y-182577809D01*
X97537571Y-182868095D01*
X98698714Y-184029238D01*
X97440809Y-184029238D01*
X95699095Y-181997238D02*
X96086142Y-181997238D01*
X96279666Y-182094000D01*
X96376428Y-182190761D01*
X96569952Y-182481047D01*
X96666714Y-182868095D01*
X96666714Y-183642190D01*
X96569952Y-183835714D01*
X96473190Y-183932476D01*
X96279666Y-184029238D01*
X95892619Y-184029238D01*
X95699095Y-183932476D01*
X95602333Y-183835714D01*
X95505571Y-183642190D01*
X95505571Y-183158380D01*
X95602333Y-182964857D01*
X95699095Y-182868095D01*
X95892619Y-182771333D01*
X96279666Y-182771333D01*
X96473190Y-182868095D01*
X96569952Y-182964857D01*
X96666714Y-183158380D01*
X125017952Y-186222571D02*
X123566523Y-186222571D01*
X124437380Y-185351714D02*
X125017952Y-187964285D01*
X123760047Y-187093428D02*
X125211476Y-187093428D01*
X124340619Y-187964285D02*
X123760047Y-185351714D01*
X122018333Y-187577238D02*
X122018333Y-185545238D01*
X122018333Y-187480476D02*
X122211857Y-187577238D01*
X122598904Y-187577238D01*
X122792428Y-187480476D01*
X122889190Y-187383714D01*
X122985952Y-187190190D01*
X122985952Y-186609619D01*
X122889190Y-186416095D01*
X122792428Y-186319333D01*
X122598904Y-186222571D01*
X122211857Y-186222571D01*
X122018333Y-186319333D01*
X120276619Y-187480476D02*
X120470142Y-187577238D01*
X120857190Y-187577238D01*
X121050714Y-187480476D01*
X121147476Y-187286952D01*
X121147476Y-186512857D01*
X121050714Y-186319333D01*
X120857190Y-186222571D01*
X120470142Y-186222571D01*
X120276619Y-186319333D01*
X120179857Y-186512857D01*
X120179857Y-186706380D01*
X121147476Y-186899904D01*
X119599285Y-186222571D02*
X118825190Y-186222571D01*
X119309000Y-187577238D02*
X119309000Y-185835523D01*
X119212238Y-185642000D01*
X119018714Y-185545238D01*
X118825190Y-185545238D01*
X118147857Y-187577238D02*
X118147857Y-186222571D01*
X118147857Y-185545238D02*
X118244619Y-185642000D01*
X118147857Y-185738761D01*
X118051095Y-185642000D01*
X118147857Y-185545238D01*
X118147857Y-185738761D01*
X117180238Y-186222571D02*
X117180238Y-187577238D01*
X117180238Y-186416095D02*
X117083476Y-186319333D01*
X116889952Y-186222571D01*
X116599666Y-186222571D01*
X116406142Y-186319333D01*
X116309380Y-186512857D01*
X116309380Y-187577238D01*
X114567666Y-187480476D02*
X114761190Y-187577238D01*
X115148238Y-187577238D01*
X115341761Y-187480476D01*
X115438523Y-187286952D01*
X115438523Y-186512857D01*
X115341761Y-186319333D01*
X115148238Y-186222571D01*
X114761190Y-186222571D01*
X114567666Y-186319333D01*
X114470904Y-186512857D01*
X114470904Y-186706380D01*
X115438523Y-186899904D01*
X112342142Y-185545238D02*
X111181000Y-185545238D01*
X111761571Y-187577238D02*
X111761571Y-185545238D01*
X109826333Y-186512857D02*
X110503666Y-186512857D01*
X110503666Y-187577238D02*
X110503666Y-185545238D01*
X109536047Y-185545238D01*
X109052238Y-185545238D02*
X107891095Y-185545238D01*
X108471666Y-187577238D02*
X108471666Y-185545238D01*
X107697571Y-187770761D02*
X106149380Y-187770761D01*
X104504428Y-187577238D02*
X105181761Y-186609619D01*
X105665571Y-187577238D02*
X105665571Y-185545238D01*
X104891476Y-185545238D01*
X104697952Y-185642000D01*
X104601190Y-185738761D01*
X104504428Y-185932285D01*
X104504428Y-186222571D01*
X104601190Y-186416095D01*
X104697952Y-186512857D01*
X104891476Y-186609619D01*
X105665571Y-186609619D01*
X103730333Y-187480476D02*
X103440047Y-187577238D01*
X102956238Y-187577238D01*
X102762714Y-187480476D01*
X102665952Y-187383714D01*
X102569190Y-187190190D01*
X102569190Y-186996666D01*
X102665952Y-186803142D01*
X102762714Y-186706380D01*
X102956238Y-186609619D01*
X103343285Y-186512857D01*
X103536809Y-186416095D01*
X103633571Y-186319333D01*
X103730333Y-186125809D01*
X103730333Y-185932285D01*
X103633571Y-185738761D01*
X103536809Y-185642000D01*
X103343285Y-185545238D01*
X102859476Y-185545238D01*
X102569190Y-185642000D01*
X101988619Y-185545238D02*
X100827476Y-185545238D01*
X101408047Y-187577238D02*
X101408047Y-185545238D01*
X97731095Y-186222571D02*
X97731095Y-187577238D01*
X98214904Y-185448476D02*
X98698714Y-186899904D01*
X97440809Y-186899904D01*
D12*
X120069428Y-140861142D02*
X120069428Y-141804571D01*
X120650000Y-141296571D01*
X120650000Y-141514285D01*
X120722571Y-141659428D01*
X120795142Y-141732000D01*
X120940285Y-141804571D01*
X121303142Y-141804571D01*
X121448285Y-141732000D01*
X121520857Y-141659428D01*
X121593428Y-141514285D01*
X121593428Y-141078857D01*
X121520857Y-140933714D01*
X121448285Y-140861142D01*
X120069428Y-142240000D02*
X121593428Y-142748000D01*
X120069428Y-143256000D01*
X120069428Y-143618857D02*
X120069428Y-144562285D01*
X120650000Y-144054285D01*
X120650000Y-144272000D01*
X120722571Y-144417142D01*
X120795142Y-144489714D01*
X120940285Y-144562285D01*
X121303142Y-144562285D01*
X121448285Y-144489714D01*
X121520857Y-144417142D01*
X121593428Y-144272000D01*
X121593428Y-143836571D01*
X121520857Y-143691428D01*
X121448285Y-143618857D01*
X117602000Y-141586857D02*
X117529428Y-141441714D01*
X117529428Y-141224000D01*
X117602000Y-141006285D01*
X117747142Y-140861142D01*
X117892285Y-140788571D01*
X118182571Y-140716000D01*
X118400285Y-140716000D01*
X118690571Y-140788571D01*
X118835714Y-140861142D01*
X118980857Y-141006285D01*
X119053428Y-141224000D01*
X119053428Y-141369142D01*
X118980857Y-141586857D01*
X118908285Y-141659428D01*
X118400285Y-141659428D01*
X118400285Y-141369142D01*
X119053428Y-142312571D02*
X117529428Y-142312571D01*
X119053428Y-143183428D01*
X117529428Y-143183428D01*
X119053428Y-143909142D02*
X117529428Y-143909142D01*
X117529428Y-144272000D01*
X117602000Y-144489714D01*
X117747142Y-144634857D01*
X117892285Y-144707428D01*
X118182571Y-144780000D01*
X118400285Y-144780000D01*
X118690571Y-144707428D01*
X118835714Y-144634857D01*
X118980857Y-144489714D01*
X119053428Y-144272000D01*
X119053428Y-143909142D01*
X116368285Y-141732000D02*
X116440857Y-141659428D01*
X116513428Y-141441714D01*
X116513428Y-141296571D01*
X116440857Y-141078857D01*
X116295714Y-140933714D01*
X116150571Y-140861142D01*
X115860285Y-140788571D01*
X115642571Y-140788571D01*
X115352285Y-140861142D01*
X115207142Y-140933714D01*
X115062000Y-141078857D01*
X114989428Y-141296571D01*
X114989428Y-141441714D01*
X115062000Y-141659428D01*
X115134571Y-141732000D01*
X116440857Y-142312571D02*
X116513428Y-142530285D01*
X116513428Y-142893142D01*
X116440857Y-143038285D01*
X116368285Y-143110857D01*
X116223142Y-143183428D01*
X116078000Y-143183428D01*
X115932857Y-143110857D01*
X115860285Y-143038285D01*
X115787714Y-142893142D01*
X115715142Y-142602857D01*
X115642571Y-142457714D01*
X115570000Y-142385142D01*
X115424857Y-142312571D01*
X115279714Y-142312571D01*
X115134571Y-142385142D01*
X115062000Y-142457714D01*
X114989428Y-142602857D01*
X114989428Y-142965714D01*
X115062000Y-143183428D01*
X113973428Y-141659428D02*
X113247714Y-141151428D01*
X113973428Y-140788571D02*
X112449428Y-140788571D01*
X112449428Y-141369142D01*
X112522000Y-141514285D01*
X112594571Y-141586857D01*
X112739714Y-141659428D01*
X112957428Y-141659428D01*
X113102571Y-141586857D01*
X113175142Y-141514285D01*
X113247714Y-141369142D01*
X113247714Y-140788571D01*
X113900857Y-142240000D02*
X113973428Y-142457714D01*
X113973428Y-142820571D01*
X113900857Y-142965714D01*
X113828285Y-143038285D01*
X113683142Y-143110857D01*
X113538000Y-143110857D01*
X113392857Y-143038285D01*
X113320285Y-142965714D01*
X113247714Y-142820571D01*
X113175142Y-142530285D01*
X113102571Y-142385142D01*
X113030000Y-142312571D01*
X112884857Y-142240000D01*
X112739714Y-142240000D01*
X112594571Y-142312571D01*
X112522000Y-142385142D01*
X112449428Y-142530285D01*
X112449428Y-142893142D01*
X112522000Y-143110857D01*
X112449428Y-143546285D02*
X112449428Y-144417142D01*
X113973428Y-143981714D02*
X112449428Y-143981714D01*
X111433428Y-140824857D02*
X109909428Y-140824857D01*
X109909428Y-141187714D01*
X109982000Y-141405428D01*
X110127142Y-141550571D01*
X110272285Y-141623142D01*
X110562571Y-141695714D01*
X110780285Y-141695714D01*
X111070571Y-141623142D01*
X111215714Y-141550571D01*
X111360857Y-141405428D01*
X111433428Y-141187714D01*
X111433428Y-140824857D01*
X111288285Y-143219714D02*
X111360857Y-143147142D01*
X111433428Y-142929428D01*
X111433428Y-142784285D01*
X111360857Y-142566571D01*
X111215714Y-142421428D01*
X111070571Y-142348857D01*
X110780285Y-142276285D01*
X110562571Y-142276285D01*
X110272285Y-142348857D01*
X110127142Y-142421428D01*
X109982000Y-142566571D01*
X109909428Y-142784285D01*
X109909428Y-142929428D01*
X109982000Y-143147142D01*
X110054571Y-143219714D01*
X108893428Y-140861142D02*
X107369428Y-140861142D01*
X108458000Y-141369142D01*
X107369428Y-141877142D01*
X108893428Y-141877142D01*
X107369428Y-142893142D02*
X107369428Y-143183428D01*
X107442000Y-143328571D01*
X107587142Y-143473714D01*
X107877428Y-143546285D01*
X108385428Y-143546285D01*
X108675714Y-143473714D01*
X108820857Y-143328571D01*
X108893428Y-143183428D01*
X108893428Y-142893142D01*
X108820857Y-142748000D01*
X108675714Y-142602857D01*
X108385428Y-142530285D01*
X107877428Y-142530285D01*
X107587142Y-142602857D01*
X107442000Y-142748000D01*
X107369428Y-142893142D01*
X108820857Y-144126857D02*
X108893428Y-144344571D01*
X108893428Y-144707428D01*
X108820857Y-144852571D01*
X108748285Y-144925142D01*
X108603142Y-144997714D01*
X108458000Y-144997714D01*
X108312857Y-144925142D01*
X108240285Y-144852571D01*
X108167714Y-144707428D01*
X108095142Y-144417142D01*
X108022571Y-144272000D01*
X107950000Y-144199428D01*
X107804857Y-144126857D01*
X107659714Y-144126857D01*
X107514571Y-144199428D01*
X107442000Y-144272000D01*
X107369428Y-144417142D01*
X107369428Y-144780000D01*
X107442000Y-144997714D01*
X108893428Y-145650857D02*
X107369428Y-145650857D01*
X106280857Y-140788571D02*
X106353428Y-141006285D01*
X106353428Y-141369142D01*
X106280857Y-141514285D01*
X106208285Y-141586857D01*
X106063142Y-141659428D01*
X105918000Y-141659428D01*
X105772857Y-141586857D01*
X105700285Y-141514285D01*
X105627714Y-141369142D01*
X105555142Y-141078857D01*
X105482571Y-140933714D01*
X105410000Y-140861142D01*
X105264857Y-140788571D01*
X105119714Y-140788571D01*
X104974571Y-140861142D01*
X104902000Y-140933714D01*
X104829428Y-141078857D01*
X104829428Y-141441714D01*
X104902000Y-141659428D01*
X106208285Y-143183428D02*
X106280857Y-143110857D01*
X106353428Y-142893142D01*
X106353428Y-142748000D01*
X106280857Y-142530285D01*
X106135714Y-142385142D01*
X105990571Y-142312571D01*
X105700285Y-142240000D01*
X105482571Y-142240000D01*
X105192285Y-142312571D01*
X105047142Y-142385142D01*
X104902000Y-142530285D01*
X104829428Y-142748000D01*
X104829428Y-142893142D01*
X104902000Y-143110857D01*
X104974571Y-143183428D01*
X106353428Y-143836571D02*
X104829428Y-143836571D01*
X106353428Y-144707428D02*
X105482571Y-144054285D01*
X104829428Y-144707428D02*
X105700285Y-143836571D01*
X103813428Y-141514285D02*
X103813428Y-140788571D01*
X102289428Y-140788571D01*
X103015142Y-142022285D02*
X103015142Y-142530285D01*
X103813428Y-142748000D02*
X103813428Y-142022285D01*
X102289428Y-142022285D01*
X102289428Y-142748000D01*
X103813428Y-143401142D02*
X102289428Y-143401142D01*
X102289428Y-143764000D01*
X102362000Y-143981714D01*
X102507142Y-144126857D01*
X102652285Y-144199428D01*
X102942571Y-144272000D01*
X103160285Y-144272000D01*
X103450571Y-144199428D01*
X103595714Y-144126857D01*
X103740857Y-143981714D01*
X103813428Y-143764000D01*
X103813428Y-143401142D01*
X101273428Y-140861142D02*
X99749428Y-140861142D01*
X100838000Y-141369142D01*
X99749428Y-141877142D01*
X101273428Y-141877142D01*
X101273428Y-142602857D02*
X99749428Y-142602857D01*
X101200857Y-143256000D02*
X101273428Y-143473714D01*
X101273428Y-143836571D01*
X101200857Y-143981714D01*
X101128285Y-144054285D01*
X100983142Y-144126857D01*
X100838000Y-144126857D01*
X100692857Y-144054285D01*
X100620285Y-143981714D01*
X100547714Y-143836571D01*
X100475142Y-143546285D01*
X100402571Y-143401142D01*
X100330000Y-143328571D01*
X100184857Y-143256000D01*
X100039714Y-143256000D01*
X99894571Y-143328571D01*
X99822000Y-143401142D01*
X99749428Y-143546285D01*
X99749428Y-143909142D01*
X99822000Y-144126857D01*
X99749428Y-145070285D02*
X99749428Y-145360571D01*
X99822000Y-145505714D01*
X99967142Y-145650857D01*
X100257428Y-145723428D01*
X100765428Y-145723428D01*
X101055714Y-145650857D01*
X101200857Y-145505714D01*
X101273428Y-145360571D01*
X101273428Y-145070285D01*
X101200857Y-144925142D01*
X101055714Y-144780000D01*
X100765428Y-144707428D01*
X100257428Y-144707428D01*
X99967142Y-144780000D01*
X99822000Y-144925142D01*
X99749428Y-145070285D01*
X97209428Y-140607142D02*
X97209428Y-141478000D01*
X98733428Y-141042571D02*
X97209428Y-141042571D01*
X98878571Y-141623142D02*
X98878571Y-142784285D01*
X98588285Y-144018000D02*
X98660857Y-143945428D01*
X98733428Y-143727714D01*
X98733428Y-143582571D01*
X98660857Y-143364857D01*
X98515714Y-143219714D01*
X98370571Y-143147142D01*
X98080285Y-143074571D01*
X97862571Y-143074571D01*
X97572285Y-143147142D01*
X97427142Y-143219714D01*
X97282000Y-143364857D01*
X97209428Y-143582571D01*
X97209428Y-143727714D01*
X97282000Y-143945428D01*
X97354571Y-144018000D01*
X98733428Y-145396857D02*
X98733428Y-144671142D01*
X97209428Y-144671142D01*
X98733428Y-145904857D02*
X97209428Y-145904857D01*
X98733428Y-146775714D02*
X97862571Y-146122571D01*
X97209428Y-146775714D02*
X98080285Y-145904857D01*
X94415428Y-140498285D02*
X94415428Y-141369142D01*
X95939428Y-140933714D02*
X94415428Y-140933714D01*
X96084571Y-141514285D02*
X96084571Y-142675428D01*
X95794285Y-143909142D02*
X95866857Y-143836571D01*
X95939428Y-143618857D01*
X95939428Y-143473714D01*
X95866857Y-143256000D01*
X95721714Y-143110857D01*
X95576571Y-143038285D01*
X95286285Y-142965714D01*
X95068571Y-142965714D01*
X94778285Y-143038285D01*
X94633142Y-143110857D01*
X94488000Y-143256000D01*
X94415428Y-143473714D01*
X94415428Y-143618857D01*
X94488000Y-143836571D01*
X94560571Y-143909142D01*
X95866857Y-144489714D02*
X95939428Y-144707428D01*
X95939428Y-145070285D01*
X95866857Y-145215428D01*
X95794285Y-145288000D01*
X95649142Y-145360571D01*
X95504000Y-145360571D01*
X95358857Y-145288000D01*
X95286285Y-145215428D01*
X95213714Y-145070285D01*
X95141142Y-144780000D01*
X95068571Y-144634857D01*
X94996000Y-144562285D01*
X94850857Y-144489714D01*
X94705714Y-144489714D01*
X94560571Y-144562285D01*
X94488000Y-144634857D01*
X94415428Y-144780000D01*
X94415428Y-145142857D01*
X94488000Y-145360571D01*
X91875428Y-140570857D02*
X91875428Y-141441714D01*
X93399428Y-141006285D02*
X91875428Y-141006285D01*
X93544571Y-141586857D02*
X93544571Y-142748000D01*
X93399428Y-143110857D02*
X91875428Y-143110857D01*
X91875428Y-143473714D01*
X91948000Y-143691428D01*
X92093142Y-143836571D01*
X92238285Y-143909142D01*
X92528571Y-143981714D01*
X92746285Y-143981714D01*
X93036571Y-143909142D01*
X93181714Y-143836571D01*
X93326857Y-143691428D01*
X93399428Y-143473714D01*
X93399428Y-143110857D01*
X93399428Y-144634857D02*
X91875428Y-144634857D01*
X93399428Y-145360571D02*
X91875428Y-145360571D01*
X93399428Y-146231428D01*
X91875428Y-146231428D01*
X89589428Y-140679714D02*
X89589428Y-141550571D01*
X91113428Y-141115142D02*
X89589428Y-141115142D01*
X91258571Y-141695714D02*
X91258571Y-142856857D01*
X91113428Y-143219714D02*
X89589428Y-143219714D01*
X89589428Y-143582571D01*
X89662000Y-143800285D01*
X89807142Y-143945428D01*
X89952285Y-144018000D01*
X90242571Y-144090571D01*
X90460285Y-144090571D01*
X90750571Y-144018000D01*
X90895714Y-143945428D01*
X91040857Y-143800285D01*
X91113428Y-143582571D01*
X91113428Y-143219714D01*
X89589428Y-145034000D02*
X89589428Y-145324285D01*
X89662000Y-145469428D01*
X89807142Y-145614571D01*
X90097428Y-145687142D01*
X90605428Y-145687142D01*
X90895714Y-145614571D01*
X91040857Y-145469428D01*
X91113428Y-145324285D01*
X91113428Y-145034000D01*
X91040857Y-144888857D01*
X90895714Y-144743714D01*
X90605428Y-144671142D01*
X90097428Y-144671142D01*
X89807142Y-144743714D01*
X89662000Y-144888857D01*
X89589428Y-145034000D01*
X86795428Y-140570857D02*
X86795428Y-141441714D01*
X88319428Y-141006285D02*
X86795428Y-141006285D01*
X88464571Y-141586857D02*
X88464571Y-142748000D01*
X88319428Y-143110857D02*
X86795428Y-143110857D01*
X88319428Y-144707428D02*
X87593714Y-144199428D01*
X88319428Y-143836571D02*
X86795428Y-143836571D01*
X86795428Y-144417142D01*
X86868000Y-144562285D01*
X86940571Y-144634857D01*
X87085714Y-144707428D01*
X87303428Y-144707428D01*
X87448571Y-144634857D01*
X87521142Y-144562285D01*
X87593714Y-144417142D01*
X87593714Y-143836571D01*
X88464571Y-146376571D02*
X88392000Y-146231428D01*
X88246857Y-146086285D01*
X88029142Y-145868571D01*
X87956571Y-145723428D01*
X87956571Y-145578285D01*
X88319428Y-145650857D02*
X88246857Y-145505714D01*
X88101714Y-145360571D01*
X87811428Y-145288000D01*
X87303428Y-145288000D01*
X87013142Y-145360571D01*
X86868000Y-145505714D01*
X86795428Y-145650857D01*
X86795428Y-145941142D01*
X86868000Y-146086285D01*
X87013142Y-146231428D01*
X87303428Y-146304000D01*
X87811428Y-146304000D01*
X88101714Y-146231428D01*
X88246857Y-146086285D01*
X88319428Y-145941142D01*
X88319428Y-145650857D01*
D13*
X121698456Y-29773904D02*
X120841313Y-29773904D01*
X121894885Y-34773904D02*
X121269885Y-29773904D01*
X120138933Y-32154857D02*
X120638933Y-32154857D01*
X120966313Y-34773904D02*
X120341313Y-29773904D01*
X119627028Y-29773904D01*
X119269885Y-29773904D02*
X118412742Y-29773904D01*
X119466313Y-34773904D02*
X118841313Y-29773904D01*
X117436552Y-34535809D02*
X117252028Y-34773904D01*
X116894885Y-34773904D01*
X116722266Y-34535809D01*
X116621075Y-34297714D01*
X116490123Y-33821523D01*
X116430599Y-33345333D01*
X116442504Y-32869142D01*
X116484171Y-32631047D01*
X116597266Y-32392952D01*
X116853218Y-32154857D01*
X116966313Y-31916761D01*
X117007980Y-31678666D01*
X117019885Y-31202476D01*
X116960361Y-30726285D01*
X116829409Y-30250095D01*
X116728218Y-30012000D01*
X116555599Y-29773904D01*
X116198456Y-29773904D01*
X116013933Y-30012000D01*
X115966313Y-34773904D02*
X115341313Y-29773904D01*
X114769885Y-29773904D01*
X114656790Y-30012000D01*
X114615123Y-30250095D01*
X114603218Y-30726285D01*
X114692504Y-31440571D01*
X114823456Y-31916761D01*
X114924647Y-32154857D01*
X115097266Y-32392952D01*
X115668694Y-32392952D01*
X114466313Y-34773904D02*
X113841313Y-29773904D01*
X112115123Y-30250095D02*
X112013933Y-30012000D01*
X111841313Y-29773904D01*
X111484171Y-29773904D01*
X111371075Y-30012000D01*
X111329409Y-30250095D01*
X111317504Y-30726285D01*
X111377028Y-31202476D01*
X111537742Y-31916761D01*
X112752028Y-34773904D01*
X111823456Y-34773904D01*
X111121075Y-34297714D02*
X111079409Y-34535809D01*
X111180599Y-34773904D01*
X111222266Y-34535809D01*
X111121075Y-34297714D01*
X111180599Y-34773904D01*
X109894885Y-31916761D02*
X110007980Y-31678666D01*
X110049647Y-31440571D01*
X110061552Y-30964380D01*
X110031790Y-30726285D01*
X109900837Y-30250095D01*
X109799647Y-30012000D01*
X109627028Y-29773904D01*
X109341313Y-29773904D01*
X109228218Y-30012000D01*
X109186552Y-30250095D01*
X109174647Y-30726285D01*
X109204409Y-30964380D01*
X109335361Y-31440571D01*
X109436552Y-31678666D01*
X109609171Y-31916761D01*
X109894885Y-31916761D01*
X110067504Y-32154857D01*
X110168694Y-32392952D01*
X110299647Y-32869142D01*
X110418694Y-33821523D01*
X110406790Y-34297714D01*
X110365123Y-34535809D01*
X110252028Y-34773904D01*
X109966313Y-34773904D01*
X109793694Y-34535809D01*
X109692504Y-34297714D01*
X109561552Y-33821523D01*
X109442504Y-32869142D01*
X109454409Y-32392952D01*
X109496075Y-32154857D01*
X109609171Y-31916761D01*
X108484171Y-29773904D02*
X108603218Y-30726285D01*
X107912742Y-29773904D02*
X108031790Y-30726285D01*
X106257980Y-30250095D02*
X106156790Y-30012000D01*
X105984171Y-29773904D01*
X105627028Y-29773904D01*
X105513933Y-30012000D01*
X105472266Y-30250095D01*
X105460361Y-30726285D01*
X105519885Y-31202476D01*
X105680599Y-31916761D01*
X106894885Y-34773904D01*
X105966313Y-34773904D01*
X104263933Y-31440571D02*
X104680599Y-34773904D01*
X104382980Y-29535809D02*
X105186552Y-33107238D01*
X104257980Y-33107238D01*
X102984171Y-29773904D02*
X102841313Y-29773904D01*
X102728218Y-30012000D01*
X102686552Y-30250095D01*
X102674647Y-30726285D01*
X102722266Y-31678666D01*
X102871075Y-32869142D01*
X103061552Y-33821523D01*
X103192504Y-34297714D01*
X103293694Y-34535809D01*
X103466313Y-34773904D01*
X103609171Y-34773904D01*
X103722266Y-34535809D01*
X103763933Y-34297714D01*
X103775837Y-33821523D01*
X103728218Y-32869142D01*
X103579409Y-31678666D01*
X103388933Y-30726285D01*
X103257980Y-30250095D01*
X103156790Y-30012000D01*
X102984171Y-29773904D01*
X102609171Y-34773904D02*
X101406790Y-31440571D01*
X102192504Y-31440571D02*
X101823456Y-34773904D01*
X100769885Y-29773904D02*
X99841313Y-29773904D01*
X100579409Y-31678666D01*
X100365123Y-31678666D01*
X100252028Y-31916761D01*
X100210361Y-32154857D01*
X100198456Y-32631047D01*
X100347266Y-33821523D01*
X100478218Y-34297714D01*
X100579409Y-34535809D01*
X100752028Y-34773904D01*
X101180599Y-34773904D01*
X101293694Y-34535809D01*
X101335361Y-34297714D01*
X99329409Y-30250095D02*
X99228218Y-30012000D01*
X99055599Y-29773904D01*
X98698456Y-29773904D01*
X98585361Y-30012000D01*
X98543694Y-30250095D01*
X98531790Y-30726285D01*
X98591313Y-31202476D01*
X98752028Y-31916761D01*
X99966313Y-34773904D01*
X99037742Y-34773904D01*
X97484171Y-29773904D02*
X97341313Y-29773904D01*
X97228218Y-30012000D01*
X97186552Y-30250095D01*
X97174647Y-30726285D01*
X97222266Y-31678666D01*
X97371075Y-32869142D01*
X97561552Y-33821523D01*
X97692504Y-34297714D01*
X97793694Y-34535809D01*
X97966313Y-34773904D01*
X98109171Y-34773904D01*
X98222266Y-34535809D01*
X98263933Y-34297714D01*
X98275837Y-33821523D01*
X98228218Y-32869142D01*
X98079409Y-31678666D01*
X97888933Y-30726285D01*
X97757980Y-30250095D01*
X97656790Y-30012000D01*
X97484171Y-29773904D01*
X95823456Y-34773904D02*
X95198456Y-29773904D01*
X94841313Y-29773904D01*
X94656790Y-30012000D01*
X94573456Y-30488190D01*
X94561552Y-30964380D01*
X94609171Y-31916761D01*
X94698456Y-32631047D01*
X94888933Y-33583428D01*
X95019885Y-34059619D01*
X95222266Y-34535809D01*
X95466313Y-34773904D01*
X95823456Y-34773904D01*
X94323456Y-34773904D02*
X93906790Y-31440571D01*
X93698456Y-29773904D02*
X93799647Y-30012000D01*
X93757980Y-30250095D01*
X93656790Y-30012000D01*
X93698456Y-29773904D01*
X93757980Y-30250095D01*
X93650837Y-34535809D02*
X93537742Y-34773904D01*
X93252028Y-34773904D01*
X93079409Y-34535809D01*
X92948456Y-34059619D01*
X92918694Y-33821523D01*
X92930599Y-33345333D01*
X93043694Y-33107238D01*
X93257980Y-33107238D01*
X93371075Y-32869142D01*
X93382980Y-32392952D01*
X93353218Y-32154857D01*
X93222266Y-31678666D01*
X93049647Y-31440571D01*
X92835361Y-31440571D01*
X92722266Y-31678666D01*
X91978218Y-31440571D02*
X92603218Y-36440571D01*
X92007980Y-31678666D02*
X91835361Y-31440571D01*
X91549647Y-31440571D01*
X91436552Y-31678666D01*
X91394885Y-31916761D01*
X91382980Y-32392952D01*
X91561552Y-33821523D01*
X91692504Y-34297714D01*
X91793694Y-34535809D01*
X91966313Y-34773904D01*
X92252028Y-34773904D01*
X92365123Y-34535809D01*
X90823456Y-34773904D02*
X90936552Y-34535809D01*
X90948456Y-34059619D01*
X90412742Y-29773904D01*
X89609171Y-34773904D02*
X89281790Y-32154857D01*
X89293694Y-31678666D01*
X89406790Y-31440571D01*
X89692504Y-31440571D01*
X89865123Y-31678666D01*
X89579409Y-34535809D02*
X89752028Y-34773904D01*
X90109171Y-34773904D01*
X90222266Y-34535809D01*
X90234171Y-34059619D01*
X90174647Y-33583428D01*
X90043694Y-33107238D01*
X89871075Y-32869142D01*
X89513933Y-32869142D01*
X89341313Y-32631047D01*
X88621075Y-31440571D02*
X88680599Y-34773904D01*
X87906790Y-31440571D02*
X88680599Y-34773904D01*
X88972266Y-35964380D01*
X89073456Y-36202476D01*
X89246075Y-36440571D01*
X86650837Y-34535809D02*
X86466313Y-34773904D01*
X86109171Y-34773904D01*
X85936552Y-34535809D01*
X85835361Y-34297714D01*
X85704409Y-33821523D01*
X85644885Y-33345333D01*
X85656790Y-32869142D01*
X85698456Y-32631047D01*
X85811552Y-32392952D01*
X86067504Y-32154857D01*
X86180599Y-31916761D01*
X86222266Y-31678666D01*
X86234171Y-31202476D01*
X86174647Y-30726285D01*
X86043694Y-30250095D01*
X85942504Y-30012000D01*
X85769885Y-29773904D01*
X85412742Y-29773904D01*
X85228218Y-30012000D01*
X85180599Y-34773904D02*
X84763933Y-31440571D01*
X84555599Y-29773904D02*
X84656790Y-30012000D01*
X84615123Y-30250095D01*
X84513933Y-30012000D01*
X84555599Y-29773904D01*
X84615123Y-30250095D01*
X83823456Y-34773904D02*
X83198456Y-29773904D01*
X83793694Y-34535809D02*
X83966313Y-34773904D01*
X84252028Y-34773904D01*
X84365123Y-34535809D01*
X84406790Y-34297714D01*
X84418694Y-33821523D01*
X84240123Y-32392952D01*
X84109171Y-31916761D01*
X84007980Y-31678666D01*
X83835361Y-31440571D01*
X83549647Y-31440571D01*
X83436552Y-31678666D01*
X82507980Y-34535809D02*
X82680599Y-34773904D01*
X82966313Y-34773904D01*
X83079409Y-34535809D01*
X83091313Y-34059619D01*
X82853218Y-32154857D01*
X82722266Y-31678666D01*
X82549647Y-31440571D01*
X82263933Y-31440571D01*
X82150837Y-31678666D01*
X82138933Y-32154857D01*
X82198456Y-32631047D01*
X82972266Y-33107238D01*
D14*
G36*
X137337781Y-183022334D02*
G01*
X136976503Y-183078860D01*
X136715638Y-183192361D01*
X136605628Y-183270217D01*
X136474171Y-183380563D01*
X136382631Y-183499354D01*
X136323784Y-183671210D01*
X136290408Y-183940753D01*
X136275279Y-184352602D01*
X136271175Y-184951377D01*
X136271000Y-185337459D01*
X136270328Y-186166921D01*
X136290623Y-186776457D01*
X136365352Y-187199832D01*
X136527983Y-187470811D01*
X136811984Y-187623161D01*
X137250823Y-187690647D01*
X137877965Y-187707034D01*
X138618630Y-187706000D01*
X139393966Y-187701720D01*
X139954210Y-187686483D01*
X140338164Y-187656689D01*
X140584629Y-187608740D01*
X140732408Y-187539037D01*
X140770429Y-187506428D01*
X140850513Y-187383409D01*
X140906712Y-187174609D01*
X140942799Y-186840559D01*
X140962547Y-186341795D01*
X140969727Y-185638850D01*
X140970000Y-185418423D01*
X140963166Y-184751924D01*
X140944349Y-184179510D01*
X140916079Y-183747352D01*
X140880883Y-183501621D01*
X140862942Y-183463824D01*
X140748813Y-183531526D01*
X140531588Y-183768051D01*
X140248555Y-184130544D01*
X140087042Y-184355608D01*
X139753324Y-184817535D01*
X139515652Y-185097771D01*
X139337147Y-185231066D01*
X139180931Y-185252169D01*
X139143560Y-185244628D01*
X138953384Y-185244054D01*
X138785363Y-185383668D01*
X138585388Y-185710355D01*
X138567596Y-185743698D01*
X138364389Y-186062367D01*
X138176144Y-186252675D01*
X138094781Y-186278600D01*
X137934348Y-186357586D01*
X137705102Y-186595982D01*
X137542189Y-186817000D01*
X137337651Y-187100009D01*
X137215144Y-187201227D01*
X137172473Y-187106924D01*
X137207445Y-186803369D01*
X137317865Y-186276833D01*
X137400119Y-185928000D01*
X137521874Y-185483921D01*
X137638650Y-185161818D01*
X137729065Y-185018349D01*
X137744036Y-185016629D01*
X137838802Y-184929066D01*
X137963994Y-184660019D01*
X138057584Y-184381629D01*
X138210365Y-183957234D01*
X138357772Y-183759468D01*
X138454987Y-183739293D01*
X138628474Y-183656301D01*
X138761557Y-183400655D01*
X138809266Y-183102250D01*
X138693618Y-183056359D01*
X138386508Y-183022586D01*
X137950408Y-183007303D01*
X137875628Y-183007000D01*
X137337781Y-183022334D01*
G37*
X137337781Y-183022334D02*
X136976503Y-183078860D01*
X136715638Y-183192361D01*
X136605628Y-183270217D01*
X136474171Y-183380563D01*
X136382631Y-183499354D01*
X136323784Y-183671210D01*
X136290408Y-183940753D01*
X136275279Y-184352602D01*
X136271175Y-184951377D01*
X136271000Y-185337459D01*
X136270328Y-186166921D01*
X136290623Y-186776457D01*
X136365352Y-187199832D01*
X136527983Y-187470811D01*
X136811984Y-187623161D01*
X137250823Y-187690647D01*
X137877965Y-187707034D01*
X138618630Y-187706000D01*
X139393966Y-187701720D01*
X139954210Y-187686483D01*
X140338164Y-187656689D01*
X140584629Y-187608740D01*
X140732408Y-187539037D01*
X140770429Y-187506428D01*
X140850513Y-187383409D01*
X140906712Y-187174609D01*
X140942799Y-186840559D01*
X140962547Y-186341795D01*
X140969727Y-185638850D01*
X140970000Y-185418423D01*
X140963166Y-184751924D01*
X140944349Y-184179510D01*
X140916079Y-183747352D01*
X140880883Y-183501621D01*
X140862942Y-183463824D01*
X140748813Y-183531526D01*
X140531588Y-183768051D01*
X140248555Y-184130544D01*
X140087042Y-184355608D01*
X139753324Y-184817535D01*
X139515652Y-185097771D01*
X139337147Y-185231066D01*
X139180931Y-185252169D01*
X139143560Y-185244628D01*
X138953384Y-185244054D01*
X138785363Y-185383668D01*
X138585388Y-185710355D01*
X138567596Y-185743698D01*
X138364389Y-186062367D01*
X138176144Y-186252675D01*
X138094781Y-186278600D01*
X137934348Y-186357586D01*
X137705102Y-186595982D01*
X137542189Y-186817000D01*
X137337651Y-187100009D01*
X137215144Y-187201227D01*
X137172473Y-187106924D01*
X137207445Y-186803369D01*
X137317865Y-186276833D01*
X137400119Y-185928000D01*
X137521874Y-185483921D01*
X137638650Y-185161818D01*
X137729065Y-185018349D01*
X137744036Y-185016629D01*
X137838802Y-184929066D01*
X137963994Y-184660019D01*
X138057584Y-184381629D01*
X138210365Y-183957234D01*
X138357772Y-183759468D01*
X138454987Y-183739293D01*
X138628474Y-183656301D01*
X138761557Y-183400655D01*
X138809266Y-183102250D01*
X138693618Y-183056359D01*
X138386508Y-183022586D01*
X137950408Y-183007303D01*
X137875628Y-183007000D01*
X137337781Y-183022334D01*
D12*
X98460560Y-125933200D02*
X87492840Y-125933200D01*
X130718560Y-125933200D02*
X130718560Y-114320320D01*
X123621800Y-125933200D02*
X130718560Y-125933200D01*
X77815440Y-125933200D02*
X77815440Y-114320320D01*
X84912200Y-125933200D02*
X77815440Y-125933200D01*
X77815440Y-37546280D02*
X84912200Y-37546280D01*
X77815440Y-45288200D02*
X77815440Y-37546280D01*
X130718560Y-37546280D02*
X123621800Y-37546280D01*
X130718560Y-45288200D02*
X130718560Y-37546280D01*
D15*
X108534200Y-37028120D02*
G75*
G03*
X108534200Y-37028120I-254000J0D01*
G01*
D12*
X106756200Y-41244520D02*
X106756200Y-43835320D01*
X99085400Y-41244520D02*
X109397800Y-41244520D01*
X99085400Y-43835320D02*
X99085400Y-41244520D01*
X109397800Y-43835320D02*
X99085400Y-43835320D01*
X109397800Y-41244520D02*
X109397800Y-43835320D01*
D15*
X121031000Y-126131320D02*
G75*
G03*
X121031000Y-126131320I-254000J0D01*
G01*
D12*
X119507000Y-122321320D02*
X119507000Y-124861320D01*
X122047000Y-124861320D02*
X122047000Y-122321320D01*
X86487000Y-124861320D02*
X122047000Y-124861320D01*
X86487000Y-122321320D02*
X86487000Y-124861320D01*
X122047000Y-122321320D02*
X86487000Y-122321320D01*
D16*
X128730855Y-34418020D02*
X128730855Y-35227544D01*
X128683236Y-35322782D01*
X128635617Y-35370401D01*
X128540379Y-35418020D01*
X128349902Y-35418020D01*
X128254664Y-35370401D01*
X128207045Y-35322782D01*
X128159426Y-35227544D01*
X128159426Y-34418020D01*
X127159426Y-35418020D02*
X127730855Y-35418020D01*
X127445140Y-35418020D02*
X127445140Y-34418020D01*
X127540379Y-34560878D01*
X127635617Y-34656116D01*
X127730855Y-34703735D01*
X126540379Y-34418020D02*
X126445140Y-34418020D01*
X126349902Y-34465640D01*
X126302283Y-34513259D01*
X126254664Y-34608497D01*
X126207045Y-34798973D01*
X126207045Y-35037068D01*
X126254664Y-35227544D01*
X126302283Y-35322782D01*
X126349902Y-35370401D01*
X126445140Y-35418020D01*
X126540379Y-35418020D01*
X126635617Y-35370401D01*
X126683236Y-35322782D01*
X126730855Y-35227544D01*
X126778474Y-35037068D01*
X126778474Y-34798973D01*
X126730855Y-34608497D01*
X126683236Y-34513259D01*
X126635617Y-34465640D01*
X126540379Y-34418020D01*
X114552714Y-76353420D02*
X113981285Y-76353420D01*
X114267000Y-77353420D02*
X114267000Y-76353420D01*
X113314619Y-76829611D02*
X113647952Y-76829611D01*
X113647952Y-77353420D02*
X113647952Y-76353420D01*
X113171761Y-76353420D01*
X112933666Y-76353420D02*
X112362238Y-76353420D01*
X112647952Y-77353420D02*
X112647952Y-76353420D01*
X111314619Y-77305801D02*
X111171761Y-77353420D01*
X110933666Y-77353420D01*
X110838428Y-77305801D01*
X110790809Y-77258182D01*
X110743190Y-77162944D01*
X110743190Y-77067706D01*
X110790809Y-76972468D01*
X110838428Y-76924849D01*
X110933666Y-76877230D01*
X111124142Y-76829611D01*
X111219380Y-76781992D01*
X111267000Y-76734373D01*
X111314619Y-76639135D01*
X111314619Y-76543897D01*
X111267000Y-76448659D01*
X111219380Y-76401040D01*
X111124142Y-76353420D01*
X110886047Y-76353420D01*
X110743190Y-76401040D01*
X110314619Y-77353420D02*
X110314619Y-76353420D01*
X109933666Y-76353420D01*
X109838428Y-76401040D01*
X109790809Y-76448659D01*
X109743190Y-76543897D01*
X109743190Y-76686754D01*
X109790809Y-76781992D01*
X109838428Y-76829611D01*
X109933666Y-76877230D01*
X110314619Y-76877230D01*
X109314619Y-77353420D02*
X109314619Y-76353420D01*
X108124142Y-76448659D02*
X108076523Y-76401040D01*
X107981285Y-76353420D01*
X107743190Y-76353420D01*
X107647952Y-76401040D01*
X107600333Y-76448659D01*
X107552714Y-76543897D01*
X107552714Y-76639135D01*
X107600333Y-76781992D01*
X108171761Y-77353420D01*
X107552714Y-77353420D01*
X107124142Y-77258182D02*
X107076523Y-77305801D01*
X107124142Y-77353420D01*
X107171761Y-77305801D01*
X107124142Y-77258182D01*
X107124142Y-77353420D01*
X106505095Y-76781992D02*
X106600333Y-76734373D01*
X106647952Y-76686754D01*
X106695571Y-76591516D01*
X106695571Y-76543897D01*
X106647952Y-76448659D01*
X106600333Y-76401040D01*
X106505095Y-76353420D01*
X106314619Y-76353420D01*
X106219380Y-76401040D01*
X106171761Y-76448659D01*
X106124142Y-76543897D01*
X106124142Y-76591516D01*
X106171761Y-76686754D01*
X106219380Y-76734373D01*
X106314619Y-76781992D01*
X106505095Y-76781992D01*
X106600333Y-76829611D01*
X106647952Y-76877230D01*
X106695571Y-76972468D01*
X106695571Y-77162944D01*
X106647952Y-77258182D01*
X106600333Y-77305801D01*
X106505095Y-77353420D01*
X106314619Y-77353420D01*
X106219380Y-77305801D01*
X106171761Y-77258182D01*
X106124142Y-77162944D01*
X106124142Y-76972468D01*
X106171761Y-76877230D01*
X106219380Y-76829611D01*
X106314619Y-76781992D01*
X105743190Y-76353420D02*
X105743190Y-76543897D01*
X105362238Y-76353420D02*
X105362238Y-76543897D01*
X104219380Y-76448659D02*
X104171761Y-76401040D01*
X104076523Y-76353420D01*
X103838428Y-76353420D01*
X103743190Y-76401040D01*
X103695571Y-76448659D01*
X103647952Y-76543897D01*
X103647952Y-76639135D01*
X103695571Y-76781992D01*
X104267000Y-77353420D01*
X103647952Y-77353420D01*
X102790809Y-76686754D02*
X102790809Y-77353420D01*
X103028904Y-76305801D02*
X103267000Y-77020087D01*
X102647952Y-77020087D01*
X102076523Y-76353420D02*
X101981285Y-76353420D01*
X101886047Y-76401040D01*
X101838428Y-76448659D01*
X101790809Y-76543897D01*
X101743190Y-76734373D01*
X101743190Y-76972468D01*
X101790809Y-77162944D01*
X101838428Y-77258182D01*
X101886047Y-77305801D01*
X101981285Y-77353420D01*
X102076523Y-77353420D01*
X102171761Y-77305801D01*
X102219380Y-77258182D01*
X102267000Y-77162944D01*
X102314619Y-76972468D01*
X102314619Y-76734373D01*
X102267000Y-76543897D01*
X102219380Y-76448659D01*
X102171761Y-76401040D01*
X102076523Y-76353420D01*
X101409857Y-77353420D02*
X100886047Y-76686754D01*
X101409857Y-76686754D02*
X100886047Y-77353420D01*
X100600333Y-76353420D02*
X99981285Y-76353420D01*
X100314619Y-76734373D01*
X100171761Y-76734373D01*
X100076523Y-76781992D01*
X100028904Y-76829611D01*
X99981285Y-76924849D01*
X99981285Y-77162944D01*
X100028904Y-77258182D01*
X100076523Y-77305801D01*
X100171761Y-77353420D01*
X100457476Y-77353420D01*
X100552714Y-77305801D01*
X100600333Y-77258182D01*
X99600333Y-76448659D02*
X99552714Y-76401040D01*
X99457476Y-76353420D01*
X99219380Y-76353420D01*
X99124142Y-76401040D01*
X99076523Y-76448659D01*
X99028904Y-76543897D01*
X99028904Y-76639135D01*
X99076523Y-76781992D01*
X99647952Y-77353420D01*
X99028904Y-77353420D01*
X98409857Y-76353420D02*
X98314619Y-76353420D01*
X98219380Y-76401040D01*
X98171761Y-76448659D01*
X98124142Y-76543897D01*
X98076523Y-76734373D01*
X98076523Y-76972468D01*
X98124142Y-77162944D01*
X98171761Y-77258182D01*
X98219380Y-77305801D01*
X98314619Y-77353420D01*
X98409857Y-77353420D01*
X98505095Y-77305801D01*
X98552714Y-77258182D01*
X98600333Y-77162944D01*
X98647952Y-76972468D01*
X98647952Y-76734373D01*
X98600333Y-76543897D01*
X98552714Y-76448659D01*
X98505095Y-76401040D01*
X98409857Y-76353420D01*
X97028904Y-76353420D02*
X96695571Y-77353420D01*
X96362238Y-76353420D01*
X95505095Y-77353420D02*
X96076523Y-77353420D01*
X95790809Y-77353420D02*
X95790809Y-76353420D01*
X95886047Y-76496278D01*
X95981285Y-76591516D01*
X96076523Y-76639135D01*
X95076523Y-77258182D02*
X95028904Y-77305801D01*
X95076523Y-77353420D01*
X95124142Y-77305801D01*
X95076523Y-77258182D01*
X95076523Y-77353420D01*
X94647952Y-76448659D02*
X94600333Y-76401040D01*
X94505095Y-76353420D01*
X94267000Y-76353420D01*
X94171761Y-76401040D01*
X94124142Y-76448659D01*
X94076523Y-76543897D01*
X94076523Y-76639135D01*
X94124142Y-76781992D01*
X94695571Y-77353420D01*
X94076523Y-77353420D01*
X115505095Y-79934060D02*
X115505095Y-78934060D01*
X114552714Y-79934060D02*
X115028904Y-79934060D01*
X115028904Y-78934060D01*
X114171761Y-79934060D02*
X113981285Y-79934060D01*
X113886047Y-79886441D01*
X113838428Y-79838822D01*
X113743190Y-79695965D01*
X113695571Y-79505489D01*
X113695571Y-79124537D01*
X113743190Y-79029299D01*
X113790809Y-78981680D01*
X113886047Y-78934060D01*
X114076523Y-78934060D01*
X114171761Y-78981680D01*
X114219380Y-79029299D01*
X114267000Y-79124537D01*
X114267000Y-79362632D01*
X114219380Y-79457870D01*
X114171761Y-79505489D01*
X114076523Y-79553108D01*
X113886047Y-79553108D01*
X113790809Y-79505489D01*
X113743190Y-79457870D01*
X113695571Y-79362632D01*
X113362238Y-78934060D02*
X112743190Y-78934060D01*
X113076523Y-79315013D01*
X112933666Y-79315013D01*
X112838428Y-79362632D01*
X112790809Y-79410251D01*
X112743190Y-79505489D01*
X112743190Y-79743584D01*
X112790809Y-79838822D01*
X112838428Y-79886441D01*
X112933666Y-79934060D01*
X113219380Y-79934060D01*
X113314619Y-79886441D01*
X113362238Y-79838822D01*
X111886047Y-79267394D02*
X111886047Y-79934060D01*
X112124142Y-78886441D02*
X112362238Y-79600727D01*
X111743190Y-79600727D01*
X110838428Y-79934060D02*
X111409857Y-79934060D01*
X111124142Y-79934060D02*
X111124142Y-78934060D01*
X111219380Y-79076918D01*
X111314619Y-79172156D01*
X111409857Y-79219775D01*
X109647952Y-79934060D02*
X109647952Y-78934060D01*
X109314619Y-79648346D01*
X108981285Y-78934060D01*
X108981285Y-79934060D01*
X108314619Y-78934060D02*
X108124142Y-78934060D01*
X108028904Y-78981680D01*
X107933666Y-79076918D01*
X107886047Y-79267394D01*
X107886047Y-79600727D01*
X107933666Y-79791203D01*
X108028904Y-79886441D01*
X108124142Y-79934060D01*
X108314619Y-79934060D01*
X108409857Y-79886441D01*
X108505095Y-79791203D01*
X108552714Y-79600727D01*
X108552714Y-79267394D01*
X108505095Y-79076918D01*
X108409857Y-78981680D01*
X108314619Y-78934060D01*
X107457476Y-79934060D02*
X107457476Y-78934060D01*
X107219380Y-78934060D01*
X107076523Y-78981680D01*
X106981285Y-79076918D01*
X106933666Y-79172156D01*
X106886047Y-79362632D01*
X106886047Y-79505489D01*
X106933666Y-79695965D01*
X106981285Y-79791203D01*
X107076523Y-79886441D01*
X107219380Y-79934060D01*
X107457476Y-79934060D01*
X106457476Y-78934060D02*
X106457476Y-79743584D01*
X106409857Y-79838822D01*
X106362238Y-79886441D01*
X106267000Y-79934060D01*
X106076523Y-79934060D01*
X105981285Y-79886441D01*
X105933666Y-79838822D01*
X105886047Y-79743584D01*
X105886047Y-78934060D01*
X104933666Y-79934060D02*
X105409857Y-79934060D01*
X105409857Y-78934060D01*
X104600333Y-79410251D02*
X104267000Y-79410251D01*
X104124142Y-79934060D02*
X104600333Y-79934060D01*
X104600333Y-78934060D01*
X104124142Y-78934060D01*
X102981285Y-79886441D02*
X102838428Y-79934060D01*
X102600333Y-79934060D01*
X102505095Y-79886441D01*
X102457476Y-79838822D01*
X102409857Y-79743584D01*
X102409857Y-79648346D01*
X102457476Y-79553108D01*
X102505095Y-79505489D01*
X102600333Y-79457870D01*
X102790809Y-79410251D01*
X102886047Y-79362632D01*
X102933666Y-79315013D01*
X102981285Y-79219775D01*
X102981285Y-79124537D01*
X102933666Y-79029299D01*
X102886047Y-78981680D01*
X102790809Y-78934060D01*
X102552714Y-78934060D01*
X102409857Y-78981680D01*
X101981285Y-79934060D02*
X101981285Y-78934060D01*
X101409857Y-79934060D02*
X101838428Y-79362632D01*
X101409857Y-78934060D02*
X101981285Y-79505489D01*
X100981285Y-78934060D02*
X100981285Y-79743584D01*
X100933666Y-79838822D01*
X100886047Y-79886441D01*
X100790809Y-79934060D01*
X100600333Y-79934060D01*
X100505095Y-79886441D01*
X100457476Y-79838822D01*
X100409857Y-79743584D01*
X100409857Y-78934060D01*
X99933666Y-79838822D02*
X99886047Y-79886441D01*
X99933666Y-79934060D01*
X99981285Y-79886441D01*
X99933666Y-79838822D01*
X99933666Y-79934060D01*
X99933666Y-79315013D02*
X99886047Y-79362632D01*
X99933666Y-79410251D01*
X99981285Y-79362632D01*
X99933666Y-79315013D01*
X99933666Y-79410251D01*
X99457476Y-79934060D02*
X99457476Y-78934060D01*
X99124142Y-79648346D01*
X98790809Y-78934060D01*
X98790809Y-79934060D01*
X98362238Y-79886441D02*
X98219380Y-79934060D01*
X97981285Y-79934060D01*
X97886047Y-79886441D01*
X97838428Y-79838822D01*
X97790809Y-79743584D01*
X97790809Y-79648346D01*
X97838428Y-79553108D01*
X97886047Y-79505489D01*
X97981285Y-79457870D01*
X98171761Y-79410251D01*
X98267000Y-79362632D01*
X98314619Y-79315013D01*
X98362238Y-79219775D01*
X98362238Y-79124537D01*
X98314619Y-79029299D01*
X98267000Y-78981680D01*
X98171761Y-78934060D01*
X97933666Y-78934060D01*
X97790809Y-78981680D01*
X97362238Y-79934060D02*
X97362238Y-78934060D01*
X96981285Y-78934060D01*
X96886047Y-78981680D01*
X96838428Y-79029299D01*
X96790809Y-79124537D01*
X96790809Y-79267394D01*
X96838428Y-79362632D01*
X96886047Y-79410251D01*
X96981285Y-79457870D01*
X97362238Y-79457870D01*
X96409857Y-79029299D02*
X96362238Y-78981680D01*
X96267000Y-78934060D01*
X96028904Y-78934060D01*
X95933666Y-78981680D01*
X95886047Y-79029299D01*
X95838428Y-79124537D01*
X95838428Y-79219775D01*
X95886047Y-79362632D01*
X96457476Y-79934060D01*
X95838428Y-79934060D01*
X95267000Y-79362632D02*
X95362238Y-79315013D01*
X95409857Y-79267394D01*
X95457476Y-79172156D01*
X95457476Y-79124537D01*
X95409857Y-79029299D01*
X95362238Y-78981680D01*
X95267000Y-78934060D01*
X95076523Y-78934060D01*
X94981285Y-78981680D01*
X94933666Y-79029299D01*
X94886047Y-79124537D01*
X94886047Y-79172156D01*
X94933666Y-79267394D01*
X94981285Y-79315013D01*
X95076523Y-79362632D01*
X95267000Y-79362632D01*
X95362238Y-79410251D01*
X95409857Y-79457870D01*
X95457476Y-79553108D01*
X95457476Y-79743584D01*
X95409857Y-79838822D01*
X95362238Y-79886441D01*
X95267000Y-79934060D01*
X95076523Y-79934060D01*
X94981285Y-79886441D01*
X94933666Y-79838822D01*
X94886047Y-79743584D01*
X94886047Y-79553108D01*
X94933666Y-79457870D01*
X94981285Y-79410251D01*
X95076523Y-79362632D01*
X94267000Y-78934060D02*
X94171761Y-78934060D01*
X94076523Y-78981680D01*
X94028904Y-79029299D01*
X93981285Y-79124537D01*
X93933666Y-79315013D01*
X93933666Y-79553108D01*
X93981285Y-79743584D01*
X94028904Y-79838822D01*
X94076523Y-79886441D01*
X94171761Y-79934060D01*
X94267000Y-79934060D01*
X94362238Y-79886441D01*
X94409857Y-79838822D01*
X94457476Y-79743584D01*
X94505095Y-79553108D01*
X94505095Y-79315013D01*
X94457476Y-79124537D01*
X94409857Y-79029299D01*
X94362238Y-78981680D01*
X94267000Y-78934060D01*
X93600333Y-78934060D02*
X92933666Y-78934060D01*
X93362238Y-79934060D01*
X95011262Y-126675900D02*
X94439834Y-126675900D01*
X94725548Y-127675900D02*
X94725548Y-126675900D01*
X93916024Y-126675900D02*
X93725548Y-126675900D01*
X93630310Y-126723520D01*
X93535072Y-126818758D01*
X93487453Y-127009234D01*
X93487453Y-127342567D01*
X93535072Y-127533043D01*
X93630310Y-127628281D01*
X93725548Y-127675900D01*
X93916024Y-127675900D01*
X94011262Y-127628281D01*
X94106500Y-127533043D01*
X94154120Y-127342567D01*
X94154120Y-127009234D01*
X94106500Y-126818758D01*
X94011262Y-126723520D01*
X93916024Y-126675900D01*
X93058881Y-126675900D02*
X93058881Y-127485424D01*
X93011262Y-127580662D01*
X92963643Y-127628281D01*
X92868405Y-127675900D01*
X92677929Y-127675900D01*
X92582691Y-127628281D01*
X92535072Y-127580662D01*
X92487453Y-127485424D01*
X92487453Y-126675900D01*
X91439834Y-127580662D02*
X91487453Y-127628281D01*
X91630310Y-127675900D01*
X91725548Y-127675900D01*
X91868405Y-127628281D01*
X91963643Y-127533043D01*
X92011262Y-127437805D01*
X92058881Y-127247329D01*
X92058881Y-127104472D01*
X92011262Y-126913996D01*
X91963643Y-126818758D01*
X91868405Y-126723520D01*
X91725548Y-126675900D01*
X91630310Y-126675900D01*
X91487453Y-126723520D01*
X91439834Y-126771139D01*
X91011262Y-127675900D02*
X91011262Y-126675900D01*
X91011262Y-127152091D02*
X90439834Y-127152091D01*
X90439834Y-127675900D02*
X90439834Y-126675900D01*
X105052714Y-36660721D02*
X104909857Y-36708340D01*
X104671761Y-36708340D01*
X104576523Y-36660721D01*
X104528904Y-36613102D01*
X104481285Y-36517864D01*
X104481285Y-36422626D01*
X104528904Y-36327388D01*
X104576523Y-36279769D01*
X104671761Y-36232150D01*
X104862238Y-36184531D01*
X104957476Y-36136912D01*
X105005095Y-36089293D01*
X105052714Y-35994055D01*
X105052714Y-35898817D01*
X105005095Y-35803579D01*
X104957476Y-35755960D01*
X104862238Y-35708340D01*
X104624142Y-35708340D01*
X104481285Y-35755960D01*
X104052714Y-36708340D02*
X104052714Y-35708340D01*
X103814619Y-35708340D01*
X103671761Y-35755960D01*
X103576523Y-35851198D01*
X103528904Y-35946436D01*
X103481285Y-36136912D01*
X103481285Y-36279769D01*
X103528904Y-36470245D01*
X103576523Y-36565483D01*
X103671761Y-36660721D01*
X103814619Y-36708340D01*
X104052714Y-36708340D01*
X109621840Y-83138354D02*
X109431363Y-83805020D01*
X109240887Y-83328830D01*
X109050411Y-83805020D01*
X108859935Y-83138354D01*
X108574220Y-83138354D02*
X108383744Y-83805020D01*
X108193268Y-83328830D01*
X108002792Y-83805020D01*
X107812316Y-83138354D01*
X107526601Y-83138354D02*
X107336125Y-83805020D01*
X107145649Y-83328830D01*
X106955173Y-83805020D01*
X106764697Y-83138354D01*
X106383744Y-83709782D02*
X106336125Y-83757401D01*
X106383744Y-83805020D01*
X106431363Y-83757401D01*
X106383744Y-83709782D01*
X106383744Y-83805020D01*
X105764697Y-83805020D02*
X105859935Y-83757401D01*
X105907554Y-83662163D01*
X105907554Y-82805020D01*
X104955173Y-83757401D02*
X105050411Y-83805020D01*
X105240887Y-83805020D01*
X105336125Y-83757401D01*
X105383744Y-83709782D01*
X105431363Y-83614544D01*
X105431363Y-83328830D01*
X105383744Y-83233592D01*
X105336125Y-83185973D01*
X105240887Y-83138354D01*
X105050411Y-83138354D01*
X104955173Y-83185973D01*
X104098030Y-83805020D02*
X104098030Y-82805020D01*
X104098030Y-83757401D02*
X104193268Y-83805020D01*
X104383744Y-83805020D01*
X104478982Y-83757401D01*
X104526601Y-83709782D01*
X104574220Y-83614544D01*
X104574220Y-83328830D01*
X104526601Y-83233592D01*
X104478982Y-83185973D01*
X104383744Y-83138354D01*
X104193268Y-83138354D01*
X104098030Y-83185973D01*
X103717078Y-83138354D02*
X103526601Y-83805020D01*
X103336125Y-83328830D01*
X103145649Y-83805020D01*
X102955173Y-83138354D01*
X102574220Y-83805020D02*
X102574220Y-83138354D01*
X102574220Y-82805020D02*
X102621840Y-82852640D01*
X102574220Y-82900259D01*
X102526601Y-82852640D01*
X102574220Y-82805020D01*
X102574220Y-82900259D01*
X102098030Y-83805020D02*
X102098030Y-82805020D01*
X102002792Y-83424068D02*
X101717078Y-83805020D01*
X101717078Y-83138354D02*
X102098030Y-83519306D01*
X101288506Y-83805020D02*
X101288506Y-83138354D01*
X101288506Y-82805020D02*
X101336125Y-82852640D01*
X101288506Y-82900259D01*
X101240887Y-82852640D01*
X101288506Y-82805020D01*
X101288506Y-82900259D01*
X100812316Y-83709782D02*
X100764697Y-83757401D01*
X100812316Y-83805020D01*
X100859935Y-83757401D01*
X100812316Y-83709782D01*
X100812316Y-83805020D01*
X99907554Y-83757401D02*
X100002792Y-83805020D01*
X100193268Y-83805020D01*
X100288506Y-83757401D01*
X100336125Y-83709782D01*
X100383744Y-83614544D01*
X100383744Y-83328830D01*
X100336125Y-83233592D01*
X100288506Y-83185973D01*
X100193268Y-83138354D01*
X100002792Y-83138354D01*
X99907554Y-83185973D01*
X99336125Y-83805020D02*
X99431363Y-83757401D01*
X99478982Y-83709782D01*
X99526601Y-83614544D01*
X99526601Y-83328830D01*
X99478982Y-83233592D01*
X99431363Y-83185973D01*
X99336125Y-83138354D01*
X99193268Y-83138354D01*
X99098030Y-83185973D01*
X99050411Y-83233592D01*
X99002792Y-83328830D01*
X99002792Y-83614544D01*
X99050411Y-83709782D01*
X99098030Y-83757401D01*
X99193268Y-83805020D01*
X99336125Y-83805020D01*
X98574220Y-83805020D02*
X98574220Y-83138354D01*
X98574220Y-83233592D02*
X98526601Y-83185973D01*
X98431363Y-83138354D01*
X98288506Y-83138354D01*
X98193268Y-83185973D01*
X98145649Y-83281211D01*
X98145649Y-83805020D01*
X98145649Y-83281211D02*
X98098030Y-83185973D01*
X98002792Y-83138354D01*
X97859935Y-83138354D01*
X97764697Y-83185973D01*
X97717078Y-83281211D01*
X97717078Y-83805020D01*
X112811535Y-127675900D02*
X112811535Y-126675900D01*
X112573440Y-126675900D01*
X112430582Y-126723520D01*
X112335344Y-126818758D01*
X112287725Y-126913996D01*
X112240106Y-127104472D01*
X112240106Y-127247329D01*
X112287725Y-127437805D01*
X112335344Y-127533043D01*
X112430582Y-127628281D01*
X112573440Y-127675900D01*
X112811535Y-127675900D01*
X111811535Y-127675900D02*
X111811535Y-126675900D01*
X111382963Y-127628281D02*
X111240106Y-127675900D01*
X111002011Y-127675900D01*
X110906773Y-127628281D01*
X110859154Y-127580662D01*
X110811535Y-127485424D01*
X110811535Y-127390186D01*
X110859154Y-127294948D01*
X110906773Y-127247329D01*
X111002011Y-127199710D01*
X111192487Y-127152091D01*
X111287725Y-127104472D01*
X111335344Y-127056853D01*
X111382963Y-126961615D01*
X111382963Y-126866377D01*
X111335344Y-126771139D01*
X111287725Y-126723520D01*
X111192487Y-126675900D01*
X110954392Y-126675900D01*
X110811535Y-126723520D01*
X110382963Y-127675900D02*
X110382963Y-126675900D01*
X110002011Y-126675900D01*
X109906773Y-126723520D01*
X109859154Y-126771139D01*
X109811535Y-126866377D01*
X109811535Y-127009234D01*
X109859154Y-127104472D01*
X109906773Y-127152091D01*
X110002011Y-127199710D01*
X110382963Y-127199710D01*
X108906773Y-127675900D02*
X109382963Y-127675900D01*
X109382963Y-126675900D01*
X108621059Y-127390186D02*
X108144868Y-127390186D01*
X108716297Y-127675900D02*
X108382963Y-126675900D01*
X108049630Y-127675900D01*
X107525820Y-127199710D02*
X107525820Y-127675900D01*
X107859154Y-126675900D02*
X107525820Y-127199710D01*
X107192487Y-126675900D01*
%LPC*%
D17*
X141097000Y-77851000D03*
X141097000Y-80391000D03*
X141097000Y-82931000D03*
X141097000Y-85471000D03*
X141097000Y-88011000D03*
X141097000Y-90551000D03*
D18*
X82270600Y-118643000D03*
X126213000Y-118669000D03*
X167640000Y-188214000D03*
X40640000Y-188214000D03*
X167640000Y-30734000D03*
X82296000Y-42545000D03*
X126238000Y-42545000D03*
X40640000Y-30734000D03*
D19*
X87757000Y-137668000D03*
X90297000Y-137668000D03*
X92837000Y-137668000D03*
X95377000Y-137668000D03*
X97917000Y-137668000D03*
X100457000Y-137668000D03*
X102997000Y-137668000D03*
X105537000Y-137668000D03*
X108077000Y-137668000D03*
X110617000Y-137668000D03*
X113157000Y-137668000D03*
X115697000Y-137668000D03*
X118237000Y-137668000D03*
D20*
X120777000Y-137668000D03*
D21*
X63754000Y-116205000D03*
X63754000Y-113665000D03*
X63754000Y-111125000D03*
X63754000Y-108585000D03*
X63754000Y-106045000D03*
X63754000Y-103505000D03*
X63754000Y-100965000D03*
D17*
X140843000Y-107823000D03*
X140843000Y-105283000D03*
X140843000Y-102743000D03*
X140843000Y-110363000D03*
X140843000Y-112903000D03*
X101346000Y-154686000D03*
X98806000Y-154686000D03*
X96266000Y-154686000D03*
X93726000Y-154686000D03*
D22*
X142113000Y-40461000D03*
X142113000Y-43001000D03*
X142113000Y-45541000D03*
X142113000Y-48081000D03*
X142113000Y-50621000D03*
X142113000Y-53161000D03*
X142113000Y-55701000D03*
X142113000Y-58241000D03*
X142113000Y-60781000D03*
X142113000Y-63321000D03*
X157353000Y-40461000D03*
X157353000Y-43001000D03*
X157353000Y-45541000D03*
X157353000Y-48081000D03*
X157353000Y-50621000D03*
X157353000Y-53161000D03*
X157353000Y-55701000D03*
X157353000Y-58241000D03*
X157353000Y-60781000D03*
D23*
X157353000Y-63321000D03*
D20*
X120650000Y-175768000D03*
D19*
X123190000Y-175768000D03*
X167132000Y-44704000D03*
D20*
X167132000Y-42164000D03*
D22*
X49022000Y-46938000D03*
X49022000Y-49478000D03*
X49022000Y-52018000D03*
X49022000Y-54558000D03*
X49022000Y-57098000D03*
X49022000Y-59638000D03*
X49022000Y-62178000D03*
X49022000Y-64718000D03*
X49022000Y-67258000D03*
X49022000Y-69798000D03*
X49022000Y-72338000D03*
X49022000Y-74878000D03*
X49022000Y-77418000D03*
X49022000Y-79958000D03*
X49022000Y-82498000D03*
X49022000Y-85038000D03*
X69342000Y-57098000D03*
X69342000Y-59638000D03*
X69342000Y-62178000D03*
X69342000Y-64718000D03*
X69342000Y-67258000D03*
X69342000Y-69798000D03*
X69342000Y-72338000D03*
X69342000Y-74878000D03*
X69342000Y-77418000D03*
X69342000Y-79958000D03*
X69342000Y-82498000D03*
D23*
X69342000Y-85038000D03*
X136017000Y-132132000D03*
D22*
X136017000Y-134672000D03*
X136017000Y-177852000D03*
X136017000Y-137212000D03*
X136017000Y-139752000D03*
X136017000Y-142292000D03*
X136017000Y-144832000D03*
X136017000Y-147372000D03*
X136017000Y-149912000D03*
X136017000Y-152452000D03*
X136017000Y-154992000D03*
X136017000Y-157532000D03*
X136017000Y-160072000D03*
X136017000Y-162612000D03*
X136017000Y-165152000D03*
X136017000Y-167692000D03*
X136017000Y-170232000D03*
X136017000Y-172772000D03*
X136017000Y-175312000D03*
X161417000Y-132132000D03*
X161417000Y-134672000D03*
X161417000Y-137212000D03*
X161417000Y-139752000D03*
X161417000Y-142292000D03*
X161417000Y-144832000D03*
X161417000Y-147372000D03*
X161417000Y-149912000D03*
X161417000Y-152452000D03*
X161417000Y-154992000D03*
X161417000Y-157532000D03*
X161417000Y-160072000D03*
X161417000Y-162612000D03*
X161417000Y-165152000D03*
X161417000Y-167692000D03*
X161417000Y-170232000D03*
X161417000Y-172772000D03*
X161417000Y-175312000D03*
X161417000Y-177852000D03*
X91948000Y-66115000D03*
X91948000Y-68655000D03*
X91948000Y-71195000D03*
X91948000Y-73735000D03*
X91948000Y-76275000D03*
X91948000Y-78815000D03*
X91948000Y-81355000D03*
X91948000Y-83895000D03*
X91948000Y-86435000D03*
X91948000Y-88975000D03*
X91948000Y-91515000D03*
X91948000Y-94055000D03*
X91948000Y-96595000D03*
X91948000Y-99135000D03*
X91948000Y-101675000D03*
X117348000Y-66115000D03*
X117348000Y-68655000D03*
X117348000Y-71195000D03*
X117348000Y-73735000D03*
X117348000Y-76275000D03*
X117348000Y-78815000D03*
X117348000Y-81355000D03*
X117348000Y-83895000D03*
X117348000Y-86435000D03*
X117348000Y-88975000D03*
X117348000Y-91515000D03*
X117348000Y-94055000D03*
X117348000Y-96595000D03*
X117348000Y-99135000D03*
D23*
X117348000Y-101675000D03*
D22*
X70993000Y-168200000D03*
X70993000Y-165660000D03*
X70993000Y-163120000D03*
X70993000Y-160580000D03*
X70993000Y-158040000D03*
X70993000Y-155500000D03*
X70993000Y-152960000D03*
X70993000Y-150420000D03*
X70993000Y-147880000D03*
X70993000Y-145340000D03*
X70993000Y-142800000D03*
X70993000Y-140260000D03*
X70993000Y-137720000D03*
X70993000Y-135180000D03*
X70993000Y-132640000D03*
X45593000Y-168200000D03*
X45593000Y-165660000D03*
X45593000Y-163120000D03*
X45593000Y-160580000D03*
X45593000Y-158040000D03*
X45593000Y-155500000D03*
X45593000Y-152960000D03*
X45593000Y-150420000D03*
X45593000Y-147880000D03*
X45593000Y-145340000D03*
X45593000Y-142800000D03*
X45593000Y-140260000D03*
X45593000Y-137720000D03*
X45593000Y-135180000D03*
D23*
X45593000Y-132640000D03*
D22*
X45593000Y-170740000D03*
X45593000Y-175820000D03*
X45593000Y-173280000D03*
X70993000Y-170740000D03*
X70993000Y-175820000D03*
X70993000Y-173280000D03*
D17*
X108077000Y-123591320D03*
X110617000Y-123591320D03*
X113157000Y-123591320D03*
X115697000Y-123591320D03*
X118237000Y-123591320D03*
X120777000Y-123591320D03*
X105537000Y-123591320D03*
X102997000Y-123591320D03*
X100457000Y-123591320D03*
X97917000Y-123591320D03*
X95377000Y-123591320D03*
X92837000Y-123591320D03*
X90297000Y-123591320D03*
X87757000Y-123591320D03*
X105537000Y-42565320D03*
X108077000Y-42565320D03*
X102997000Y-42565320D03*
X100457000Y-42565320D03*
M02*
