%FSLAX45Y45*%
G04 Gerber Fmt 4.5, Leading zero omitted, Abs format (unit mm)*
G04 Created by KiCad (PCBNEW 5.99.0+really5.1.10+dfsg1-1) date 2021-09-08 20:42:58*
%MOMM*%
%LPD*%
G01*
G04 APERTURE LIST*
%TA.AperFunction,Profile*%
%ADD10C,0.100000*%
%TD*%
%ADD11C,0.200000*%
%ADD12C,0.300000*%
G04 APERTURE END LIST*
D10*
X3556000Y-19304000D02*
X3556000Y-2540000D01*
X17272000Y-19304000D02*
X3556000Y-19304000D01*
X17272000Y-2540000D02*
X17272000Y-19304000D01*
X3556000Y-2540000D02*
X17272000Y-2540000D01*
D11*
X3904000Y-2913400D02*
X4224000Y-3233400D01*
X4224000Y-2913400D02*
X3904000Y-3233400D01*
X3904000Y-18661400D02*
X4224000Y-18981400D01*
X4224000Y-18661400D02*
X3904000Y-18981400D01*
X8067060Y-11704300D02*
X8387060Y-12024300D01*
X8387060Y-11704300D02*
X8067060Y-12024300D01*
X8069600Y-4094500D02*
X8389600Y-4414500D01*
X8389600Y-4094500D02*
X8069600Y-4414500D01*
X12461300Y-11706900D02*
X12781300Y-12026900D01*
X12781300Y-11706900D02*
X12461300Y-12026900D01*
X12463800Y-4094500D02*
X12783800Y-4414500D01*
X12783800Y-4094500D02*
X12463800Y-4414500D01*
X16604000Y-2913400D02*
X16924000Y-3233400D01*
X16924000Y-2913400D02*
X16604000Y-3233400D01*
X16604000Y-18661400D02*
X16924000Y-18981400D01*
X16924000Y-18661400D02*
X16604000Y-18981400D01*
D12*
X3837428Y-19774714D02*
X3837428Y-19474714D01*
X3908857Y-19474714D01*
X3951714Y-19489000D01*
X3980286Y-19517572D01*
X3994571Y-19546143D01*
X4008857Y-19603286D01*
X4008857Y-19646143D01*
X3994571Y-19703286D01*
X3980286Y-19731857D01*
X3951714Y-19760429D01*
X3908857Y-19774714D01*
X3837428Y-19774714D01*
X4137428Y-19774714D02*
X4137428Y-19574714D01*
X4137428Y-19631857D02*
X4151714Y-19603286D01*
X4166000Y-19589000D01*
X4194571Y-19574714D01*
X4223143Y-19574714D01*
X4323143Y-19774714D02*
X4323143Y-19574714D01*
X4323143Y-19474714D02*
X4308857Y-19489000D01*
X4323143Y-19503286D01*
X4337428Y-19489000D01*
X4323143Y-19474714D01*
X4323143Y-19503286D01*
X4508857Y-19774714D02*
X4480286Y-19760429D01*
X4466000Y-19731857D01*
X4466000Y-19474714D01*
X4666000Y-19774714D02*
X4637428Y-19760429D01*
X4623143Y-19731857D01*
X4623143Y-19474714D01*
X5008857Y-19774714D02*
X5008857Y-19474714D01*
X5108857Y-19689000D01*
X5208857Y-19474714D01*
X5208857Y-19774714D01*
X5480286Y-19774714D02*
X5480286Y-19617572D01*
X5466000Y-19589000D01*
X5437428Y-19574714D01*
X5380286Y-19574714D01*
X5351714Y-19589000D01*
X5480286Y-19760429D02*
X5451714Y-19774714D01*
X5380286Y-19774714D01*
X5351714Y-19760429D01*
X5337428Y-19731857D01*
X5337428Y-19703286D01*
X5351714Y-19674714D01*
X5380286Y-19660429D01*
X5451714Y-19660429D01*
X5480286Y-19646143D01*
X5623143Y-19574714D02*
X5623143Y-19874714D01*
X5623143Y-19589000D02*
X5651714Y-19574714D01*
X5708857Y-19574714D01*
X5737428Y-19589000D01*
X5751714Y-19603286D01*
X5766000Y-19631857D01*
X5766000Y-19717572D01*
X5751714Y-19746143D01*
X5737428Y-19760429D01*
X5708857Y-19774714D01*
X5651714Y-19774714D01*
X5623143Y-19760429D01*
X5894571Y-19746143D02*
X5908857Y-19760429D01*
X5894571Y-19774714D01*
X5880286Y-19760429D01*
X5894571Y-19746143D01*
X5894571Y-19774714D01*
X5894571Y-19589000D02*
X5908857Y-19603286D01*
X5894571Y-19617572D01*
X5880286Y-19603286D01*
X5894571Y-19589000D01*
X5894571Y-19617572D01*
X3231000Y-20109000D02*
X3551000Y-20429000D01*
X3551000Y-20109000D02*
X3231000Y-20429000D01*
X3808857Y-20104714D02*
X3994571Y-20104714D01*
X3894571Y-20219000D01*
X3937428Y-20219000D01*
X3966000Y-20233286D01*
X3980286Y-20247572D01*
X3994571Y-20276143D01*
X3994571Y-20347572D01*
X3980286Y-20376143D01*
X3966000Y-20390429D01*
X3937428Y-20404714D01*
X3851714Y-20404714D01*
X3823143Y-20390429D01*
X3808857Y-20376143D01*
X4123143Y-20376143D02*
X4137428Y-20390429D01*
X4123143Y-20404714D01*
X4108857Y-20390429D01*
X4123143Y-20376143D01*
X4123143Y-20404714D01*
X4251714Y-20133286D02*
X4266000Y-20119000D01*
X4294571Y-20104714D01*
X4366000Y-20104714D01*
X4394571Y-20119000D01*
X4408857Y-20133286D01*
X4423143Y-20161857D01*
X4423143Y-20190429D01*
X4408857Y-20233286D01*
X4237428Y-20404714D01*
X4423143Y-20404714D01*
X4608857Y-20104714D02*
X4637428Y-20104714D01*
X4666000Y-20119000D01*
X4680286Y-20133286D01*
X4694571Y-20161857D01*
X4708857Y-20219000D01*
X4708857Y-20290429D01*
X4694571Y-20347572D01*
X4680286Y-20376143D01*
X4666000Y-20390429D01*
X4637428Y-20404714D01*
X4608857Y-20404714D01*
X4580286Y-20390429D01*
X4566000Y-20376143D01*
X4551714Y-20347572D01*
X4537428Y-20290429D01*
X4537428Y-20219000D01*
X4551714Y-20161857D01*
X4566000Y-20133286D01*
X4580286Y-20119000D01*
X4608857Y-20104714D01*
X4894571Y-20104714D02*
X4923143Y-20104714D01*
X4951714Y-20119000D01*
X4966000Y-20133286D01*
X4980286Y-20161857D01*
X4994571Y-20219000D01*
X4994571Y-20290429D01*
X4980286Y-20347572D01*
X4966000Y-20376143D01*
X4951714Y-20390429D01*
X4923143Y-20404714D01*
X4894571Y-20404714D01*
X4866000Y-20390429D01*
X4851714Y-20376143D01*
X4837428Y-20347572D01*
X4823143Y-20290429D01*
X4823143Y-20219000D01*
X4837428Y-20161857D01*
X4851714Y-20133286D01*
X4866000Y-20119000D01*
X4894571Y-20104714D01*
X5123143Y-20404714D02*
X5123143Y-20204714D01*
X5123143Y-20233286D02*
X5137428Y-20219000D01*
X5166000Y-20204714D01*
X5208857Y-20204714D01*
X5237428Y-20219000D01*
X5251714Y-20247572D01*
X5251714Y-20404714D01*
X5251714Y-20247572D02*
X5266000Y-20219000D01*
X5294571Y-20204714D01*
X5337428Y-20204714D01*
X5366000Y-20219000D01*
X5380286Y-20247572D01*
X5380286Y-20404714D01*
X5523143Y-20404714D02*
X5523143Y-20204714D01*
X5523143Y-20233286D02*
X5537428Y-20219000D01*
X5566000Y-20204714D01*
X5608857Y-20204714D01*
X5637428Y-20219000D01*
X5651714Y-20247572D01*
X5651714Y-20404714D01*
X5651714Y-20247572D02*
X5666000Y-20219000D01*
X5694571Y-20204714D01*
X5737428Y-20204714D01*
X5766000Y-20219000D01*
X5780286Y-20247572D01*
X5780286Y-20404714D01*
X6366000Y-20090429D02*
X6108857Y-20476143D01*
X6751714Y-20104714D02*
X6780286Y-20104714D01*
X6808857Y-20119000D01*
X6823143Y-20133286D01*
X6837428Y-20161857D01*
X6851714Y-20219000D01*
X6851714Y-20290429D01*
X6837428Y-20347572D01*
X6823143Y-20376143D01*
X6808857Y-20390429D01*
X6780286Y-20404714D01*
X6751714Y-20404714D01*
X6723143Y-20390429D01*
X6708857Y-20376143D01*
X6694571Y-20347572D01*
X6680286Y-20290429D01*
X6680286Y-20219000D01*
X6694571Y-20161857D01*
X6708857Y-20133286D01*
X6723143Y-20119000D01*
X6751714Y-20104714D01*
X6980286Y-20376143D02*
X6994571Y-20390429D01*
X6980286Y-20404714D01*
X6966000Y-20390429D01*
X6980286Y-20376143D01*
X6980286Y-20404714D01*
X7280286Y-20404714D02*
X7108857Y-20404714D01*
X7194571Y-20404714D02*
X7194571Y-20104714D01*
X7166000Y-20147572D01*
X7137428Y-20176143D01*
X7108857Y-20190429D01*
X7394571Y-20133286D02*
X7408857Y-20119000D01*
X7437428Y-20104714D01*
X7508857Y-20104714D01*
X7537428Y-20119000D01*
X7551714Y-20133286D01*
X7566000Y-20161857D01*
X7566000Y-20190429D01*
X7551714Y-20233286D01*
X7380286Y-20404714D01*
X7566000Y-20404714D01*
X7823143Y-20104714D02*
X7766000Y-20104714D01*
X7737428Y-20119000D01*
X7723143Y-20133286D01*
X7694571Y-20176143D01*
X7680286Y-20233286D01*
X7680286Y-20347572D01*
X7694571Y-20376143D01*
X7708857Y-20390429D01*
X7737428Y-20404714D01*
X7794571Y-20404714D01*
X7823143Y-20390429D01*
X7837428Y-20376143D01*
X7851714Y-20347572D01*
X7851714Y-20276143D01*
X7837428Y-20247572D01*
X7823143Y-20233286D01*
X7794571Y-20219000D01*
X7737428Y-20219000D01*
X7708857Y-20233286D01*
X7694571Y-20247572D01*
X7680286Y-20276143D01*
X8037428Y-20104714D02*
X8066000Y-20104714D01*
X8094571Y-20119000D01*
X8108857Y-20133286D01*
X8123143Y-20161857D01*
X8137428Y-20219000D01*
X8137428Y-20290429D01*
X8123143Y-20347572D01*
X8108857Y-20376143D01*
X8094571Y-20390429D01*
X8066000Y-20404714D01*
X8037428Y-20404714D01*
X8008857Y-20390429D01*
X7994571Y-20376143D01*
X7980286Y-20347572D01*
X7966000Y-20290429D01*
X7966000Y-20219000D01*
X7980286Y-20161857D01*
X7994571Y-20133286D01*
X8008857Y-20119000D01*
X8037428Y-20104714D01*
X8251714Y-20104714D02*
X8251714Y-20161857D01*
X8366000Y-20104714D02*
X8366000Y-20161857D01*
X8808857Y-20519000D02*
X8794571Y-20504714D01*
X8766000Y-20461857D01*
X8751714Y-20433286D01*
X8737428Y-20390429D01*
X8723143Y-20319000D01*
X8723143Y-20261857D01*
X8737428Y-20190429D01*
X8751714Y-20147572D01*
X8766000Y-20119000D01*
X8794571Y-20076143D01*
X8808857Y-20061857D01*
X8966000Y-20233286D02*
X8937428Y-20219000D01*
X8923143Y-20204714D01*
X8908857Y-20176143D01*
X8908857Y-20161857D01*
X8923143Y-20133286D01*
X8937428Y-20119000D01*
X8966000Y-20104714D01*
X9023143Y-20104714D01*
X9051714Y-20119000D01*
X9066000Y-20133286D01*
X9080286Y-20161857D01*
X9080286Y-20176143D01*
X9066000Y-20204714D01*
X9051714Y-20219000D01*
X9023143Y-20233286D01*
X8966000Y-20233286D01*
X8937428Y-20247572D01*
X8923143Y-20261857D01*
X8908857Y-20290429D01*
X8908857Y-20347572D01*
X8923143Y-20376143D01*
X8937428Y-20390429D01*
X8966000Y-20404714D01*
X9023143Y-20404714D01*
X9051714Y-20390429D01*
X9066000Y-20376143D01*
X9080286Y-20347572D01*
X9080286Y-20290429D01*
X9066000Y-20261857D01*
X9051714Y-20247572D01*
X9023143Y-20233286D01*
X9437428Y-20404714D02*
X9437428Y-20104714D01*
X9566000Y-20404714D02*
X9566000Y-20247572D01*
X9551714Y-20219000D01*
X9523143Y-20204714D01*
X9480286Y-20204714D01*
X9451714Y-20219000D01*
X9437428Y-20233286D01*
X9751714Y-20404714D02*
X9723143Y-20390429D01*
X9708857Y-20376143D01*
X9694571Y-20347572D01*
X9694571Y-20261857D01*
X9708857Y-20233286D01*
X9723143Y-20219000D01*
X9751714Y-20204714D01*
X9794571Y-20204714D01*
X9823143Y-20219000D01*
X9837428Y-20233286D01*
X9851714Y-20261857D01*
X9851714Y-20347572D01*
X9837428Y-20376143D01*
X9823143Y-20390429D01*
X9794571Y-20404714D01*
X9751714Y-20404714D01*
X10023143Y-20404714D02*
X9994571Y-20390429D01*
X9980286Y-20361857D01*
X9980286Y-20104714D01*
X10251714Y-20390429D02*
X10223143Y-20404714D01*
X10166000Y-20404714D01*
X10137428Y-20390429D01*
X10123143Y-20361857D01*
X10123143Y-20247572D01*
X10137428Y-20219000D01*
X10166000Y-20204714D01*
X10223143Y-20204714D01*
X10251714Y-20219000D01*
X10266000Y-20247572D01*
X10266000Y-20276143D01*
X10123143Y-20304714D01*
X10380286Y-20390429D02*
X10408857Y-20404714D01*
X10466000Y-20404714D01*
X10494571Y-20390429D01*
X10508857Y-20361857D01*
X10508857Y-20347572D01*
X10494571Y-20319000D01*
X10466000Y-20304714D01*
X10423143Y-20304714D01*
X10394571Y-20290429D01*
X10380286Y-20261857D01*
X10380286Y-20247572D01*
X10394571Y-20219000D01*
X10423143Y-20204714D01*
X10466000Y-20204714D01*
X10494571Y-20219000D01*
X10608857Y-20519000D02*
X10623143Y-20504714D01*
X10651714Y-20461857D01*
X10666000Y-20433286D01*
X10680286Y-20390429D01*
X10694571Y-20319000D01*
X10694571Y-20261857D01*
X10680286Y-20190429D01*
X10666000Y-20147572D01*
X10651714Y-20119000D01*
X10623143Y-20076143D01*
X10608857Y-20061857D01*
X11151714Y-20519000D02*
X11137428Y-20504714D01*
X11108857Y-20461857D01*
X11094571Y-20433286D01*
X11080286Y-20390429D01*
X11066000Y-20319000D01*
X11066000Y-20261857D01*
X11080286Y-20190429D01*
X11094571Y-20147572D01*
X11108857Y-20119000D01*
X11137428Y-20076143D01*
X11151714Y-20061857D01*
X11266000Y-20204714D02*
X11266000Y-20404714D01*
X11266000Y-20233286D02*
X11280286Y-20219000D01*
X11308857Y-20204714D01*
X11351714Y-20204714D01*
X11380286Y-20219000D01*
X11394571Y-20247572D01*
X11394571Y-20404714D01*
X11580286Y-20404714D02*
X11551714Y-20390429D01*
X11537428Y-20376143D01*
X11523143Y-20347572D01*
X11523143Y-20261857D01*
X11537428Y-20233286D01*
X11551714Y-20219000D01*
X11580286Y-20204714D01*
X11623143Y-20204714D01*
X11651714Y-20219000D01*
X11666000Y-20233286D01*
X11680286Y-20261857D01*
X11680286Y-20347572D01*
X11666000Y-20376143D01*
X11651714Y-20390429D01*
X11623143Y-20404714D01*
X11580286Y-20404714D01*
X11766000Y-20204714D02*
X11880286Y-20204714D01*
X11808857Y-20104714D02*
X11808857Y-20361857D01*
X11823143Y-20390429D01*
X11851714Y-20404714D01*
X11880286Y-20404714D01*
X12208857Y-20204714D02*
X12208857Y-20504714D01*
X12208857Y-20219000D02*
X12237428Y-20204714D01*
X12294571Y-20204714D01*
X12323143Y-20219000D01*
X12337428Y-20233286D01*
X12351714Y-20261857D01*
X12351714Y-20347572D01*
X12337428Y-20376143D01*
X12323143Y-20390429D01*
X12294571Y-20404714D01*
X12237428Y-20404714D01*
X12208857Y-20390429D01*
X12523143Y-20404714D02*
X12494571Y-20390429D01*
X12480286Y-20361857D01*
X12480286Y-20104714D01*
X12766000Y-20404714D02*
X12766000Y-20247572D01*
X12751714Y-20219000D01*
X12723143Y-20204714D01*
X12666000Y-20204714D01*
X12637428Y-20219000D01*
X12766000Y-20390429D02*
X12737428Y-20404714D01*
X12666000Y-20404714D01*
X12637428Y-20390429D01*
X12623143Y-20361857D01*
X12623143Y-20333286D01*
X12637428Y-20304714D01*
X12666000Y-20290429D01*
X12737428Y-20290429D01*
X12766000Y-20276143D01*
X12866000Y-20204714D02*
X12980286Y-20204714D01*
X12908857Y-20104714D02*
X12908857Y-20361857D01*
X12923143Y-20390429D01*
X12951714Y-20404714D01*
X12980286Y-20404714D01*
X13194571Y-20390429D02*
X13166000Y-20404714D01*
X13108857Y-20404714D01*
X13080286Y-20390429D01*
X13066000Y-20361857D01*
X13066000Y-20247572D01*
X13080286Y-20219000D01*
X13108857Y-20204714D01*
X13166000Y-20204714D01*
X13194571Y-20219000D01*
X13208857Y-20247572D01*
X13208857Y-20276143D01*
X13066000Y-20304714D01*
X13466000Y-20404714D02*
X13466000Y-20104714D01*
X13466000Y-20390429D02*
X13437428Y-20404714D01*
X13380286Y-20404714D01*
X13351714Y-20390429D01*
X13337428Y-20376143D01*
X13323143Y-20347572D01*
X13323143Y-20261857D01*
X13337428Y-20233286D01*
X13351714Y-20219000D01*
X13380286Y-20204714D01*
X13437428Y-20204714D01*
X13466000Y-20219000D01*
X13580286Y-20519000D02*
X13594571Y-20504714D01*
X13623143Y-20461857D01*
X13637428Y-20433286D01*
X13651714Y-20390429D01*
X13666000Y-20319000D01*
X13666000Y-20261857D01*
X13651714Y-20190429D01*
X13637428Y-20147572D01*
X13623143Y-20119000D01*
X13594571Y-20076143D01*
X13580286Y-20061857D01*
M02*
