M48
; DRILL file {KiCad 5.99.0+really5.1.10+dfsg1-1} date Wed Sep  8 20:42:48 2021
; FORMAT={-:-/ absolute / metric / decimal}
; #@! TF.CreationDate,2021-09-08T20:42:48+02:00
; #@! TF.GenerationSoftware,Kicad,Pcbnew,5.99.0+really5.1.10+dfsg1-1
; #@! TF.FileFunction,Plated,1,2,PTH
FMAT,2
METRIC
T1C1.000
T2C1.016
T3C1.040
%
G90
G05
T1
X87.757Y-137.668
X90.297Y-137.668
X92.837Y-137.668
X95.377Y-137.668
X97.917Y-137.668
X100.457Y-137.668
X102.997Y-137.668
X105.537Y-137.668
X108.077Y-137.668
X110.617Y-137.668
X113.157Y-137.668
X115.697Y-137.668
X118.237Y-137.668
X120.65Y-175.768
X120.777Y-137.668
X123.19Y-175.768
X167.132Y-42.164
X167.132Y-44.704
T2
X63.754Y-100.965
X63.754Y-103.505
X63.754Y-106.045
X63.754Y-108.585
X63.754Y-111.125
X63.754Y-113.665
X63.754Y-116.205
X87.757Y-123.591
X90.297Y-123.591
X92.837Y-123.591
X93.726Y-154.686
X95.377Y-123.591
X96.266Y-154.686
X97.917Y-123.591
X98.806Y-154.686
X100.457Y-42.565
X100.457Y-123.591
X101.346Y-154.686
X102.997Y-42.565
X102.997Y-123.591
X105.537Y-42.565
X105.537Y-123.591
X108.077Y-42.565
X108.077Y-123.591
X110.617Y-123.591
X113.157Y-123.591
X115.697Y-123.591
X118.237Y-123.591
X120.777Y-123.591
X140.843Y-102.743
X140.843Y-105.283
X140.843Y-107.823
X140.843Y-110.363
X140.843Y-112.903
X141.097Y-77.851
X141.097Y-80.391
X141.097Y-82.931
X141.097Y-85.471
X141.097Y-88.011
X141.097Y-90.551
T3
X45.593Y-132.64
X45.593Y-135.18
X45.593Y-137.72
X45.593Y-140.26
X45.593Y-142.8
X45.593Y-145.34
X45.593Y-147.88
X45.593Y-150.42
X45.593Y-152.96
X45.593Y-155.5
X45.593Y-158.04
X45.593Y-160.58
X45.593Y-163.12
X45.593Y-165.66
X45.593Y-168.2
X45.593Y-170.74
X45.593Y-173.28
X45.593Y-175.82
X49.022Y-46.938
X49.022Y-49.478
X49.022Y-52.018
X49.022Y-54.558
X49.022Y-57.098
X49.022Y-59.638
X49.022Y-62.178
X49.022Y-64.718
X49.022Y-67.258
X49.022Y-69.798
X49.022Y-72.338
X49.022Y-74.878
X49.022Y-77.418
X49.022Y-79.958
X49.022Y-82.498
X49.022Y-85.038
X69.342Y-57.098
X69.342Y-59.638
X69.342Y-62.178
X69.342Y-64.718
X69.342Y-67.258
X69.342Y-69.798
X69.342Y-72.338
X69.342Y-74.878
X69.342Y-77.418
X69.342Y-79.958
X69.342Y-82.498
X69.342Y-85.038
X70.993Y-132.64
X70.993Y-135.18
X70.993Y-137.72
X70.993Y-140.26
X70.993Y-142.8
X70.993Y-145.34
X70.993Y-147.88
X70.993Y-150.42
X70.993Y-152.96
X70.993Y-155.5
X70.993Y-158.04
X70.993Y-160.58
X70.993Y-163.12
X70.993Y-165.66
X70.993Y-168.2
X70.993Y-170.74
X70.993Y-173.28
X70.993Y-175.82
X91.948Y-66.115
X91.948Y-68.655
X91.948Y-71.195
X91.948Y-73.735
X91.948Y-76.275
X91.948Y-78.815
X91.948Y-81.355
X91.948Y-83.895
X91.948Y-86.435
X91.948Y-88.975
X91.948Y-91.515
X91.948Y-94.055
X91.948Y-96.595
X91.948Y-99.135
X91.948Y-101.675
X117.348Y-66.115
X117.348Y-68.655
X117.348Y-71.195
X117.348Y-73.735
X117.348Y-76.275
X117.348Y-78.815
X117.348Y-81.355
X117.348Y-83.895
X117.348Y-86.435
X117.348Y-88.975
X117.348Y-91.515
X117.348Y-94.055
X117.348Y-96.595
X117.348Y-99.135
X117.348Y-101.675
X136.017Y-132.132
X136.017Y-134.672
X136.017Y-137.212
X136.017Y-139.752
X136.017Y-142.292
X136.017Y-144.832
X136.017Y-147.372
X136.017Y-149.912
X136.017Y-152.452
X136.017Y-154.992
X136.017Y-157.532
X136.017Y-160.072
X136.017Y-162.612
X136.017Y-165.152
X136.017Y-167.692
X136.017Y-170.232
X136.017Y-172.772
X136.017Y-175.312
X136.017Y-177.852
X142.113Y-40.461
X142.113Y-43.001
X142.113Y-45.541
X142.113Y-48.081
X142.113Y-50.621
X142.113Y-53.161
X142.113Y-55.701
X142.113Y-58.241
X142.113Y-60.781
X142.113Y-63.321
X157.353Y-40.461
X157.353Y-43.001
X157.353Y-45.541
X157.353Y-48.081
X157.353Y-50.621
X157.353Y-53.161
X157.353Y-55.701
X157.353Y-58.241
X157.353Y-60.781
X157.353Y-63.321
X161.417Y-132.132
X161.417Y-134.672
X161.417Y-137.212
X161.417Y-139.752
X161.417Y-142.292
X161.417Y-144.832
X161.417Y-147.372
X161.417Y-149.912
X161.417Y-152.452
X161.417Y-154.992
X161.417Y-157.532
X161.417Y-160.072
X161.417Y-162.612
X161.417Y-165.152
X161.417Y-167.692
X161.417Y-170.232
X161.417Y-172.772
X161.417Y-175.312
X161.417Y-177.852
T0
M30
